<svg width="80" height="79" viewBox="0 0 80 79" fill="none" xmlns="http://www.w3.org/2000/svg">
<g clip-path="url(#clip0_225_7060)">
<path d="M0.814819 46.6212C2.70996 51.7678 7.63184 55.2202 13.1775 55.2925L10.6744 77.5384C10.6329 77.9109 10.7538 78.2828 11.0065 78.5618C11.2598 78.8409 11.6211 79 12.0001 79H27.9999C28.3789 79 28.7402 78.8409 28.9935 78.5618C29.2462 78.2828 29.3671 77.9109 29.3256 77.5384L26.8225 55.2925C34.1199 55.2021 39.9902 49.34 40 42.1333V40.8169C40 40.0895 39.4031 39.5 38.6664 39.5H29.0167C35.1935 35.3714 38.8269 28.4304 38.6664 21.0669C38.6664 9.45068 30.2936 0 20 0C9.70642 0 1.33362 9.45068 1.33362 21.0669C1.1731 28.4304 4.80652 35.3714 10.9833 39.5H1.33362C0.596924 39.5 0 40.0895 0 40.8169V42.1333C0.00305175 43.6389 0.269775 45.133 0.787964 46.5488C0.797119 46.5735 0.803833 46.5971 0.814819 46.6212ZM13.4894 76.3667L15.8606 55.2998H24.1394L26.5106 76.3667H13.4894ZM4.00024 21.0669C4.00024 10.902 11.1774 2.63329 20 2.63329C28.8226 2.63329 35.9998 10.902 35.9998 21.0669C35.9998 31.2313 28.8226 39.5 20 39.5C19.104 39.4934 18.2111 39.4006 17.3334 39.2227V32.9165C17.334 32.1896 17.9303 31.6007 18.6664 31.6001H20C20.7361 31.6007 21.3324 32.1896 21.3336 32.9165C21.3336 33.644 21.9305 34.2334 22.6666 34.2334C23.4033 34.2334 24.0002 33.644 24.0002 32.9165C23.9978 30.7364 22.2083 28.9692 20 28.9668H18.6664C16.4587 28.9692 14.6692 30.7364 14.6667 32.9165V38.4247C8.46252 35.8861 4.00024 29.0741 4.00024 21.0669V21.0669ZM37.3334 42.1333C37.3267 47.9478 32.5549 52.6598 26.6669 52.6665H13.3331C9.52759 52.6622 6.01257 50.6552 4.11011 47.3999H9.3335C10.0696 47.3999 10.6665 46.8104 10.6665 46.0835C10.6665 45.356 10.0696 44.7666 9.3335 44.7666H3.01758C2.78809 43.9071 2.67029 43.0223 2.66663 42.1333H37.3334Z" fill="#006B5F"/>
<path d="M14.6667 47.3999H15.9998C16.7365 47.3999 17.3334 46.8104 17.3334 46.0835C17.3334 45.3561 16.7365 44.7666 15.9998 44.7666H14.6667C13.9301 44.7666 13.3331 45.3561 13.3331 46.0835C13.3331 46.8104 13.9301 47.3999 14.6667 47.3999Z" fill="#006B5F"/>
<path d="M10.6665 14.4834C11.0205 14.4841 11.3599 14.3448 11.6095 14.0977L16.9428 8.83112C17.2894 8.50022 17.428 8.01081 17.3065 7.55033C17.1845 7.08985 16.8201 6.73063 16.3538 6.61009C15.8881 6.48954 15.3919 6.62696 15.0574 6.96931L9.72414 12.2359C9.34267 12.6126 9.22853 13.1786 9.43483 13.6704C9.64174 14.1622 10.1276 14.4834 10.6665 14.4834Z" fill="#006B5F"/>
<path d="M24.9426 8.83112C25.2893 8.50022 25.4285 8.01081 25.3064 7.55033C25.1843 7.08985 24.8199 6.73063 24.3542 6.61009C23.8879 6.48954 23.3923 6.62696 23.0572 6.96931L8.3905 21.4527C8.04383 21.783 7.90528 22.2724 8.02735 22.7329C8.14881 23.1934 8.51319 23.5526 8.97949 23.6732C9.4458 23.7937 9.94141 23.6563 10.2759 23.3145L24.9426 8.83112Z" fill="#006B5F"/>
<path d="M78.6664 46.0835H77.3334V44.7665C77.3334 44.0397 76.7365 43.4502 75.9998 43.4502C75.2637 43.4502 74.6667 44.0397 74.6667 44.7665V46.0835H72.0001V44.7665C71.9977 42.5859 70.2081 40.8193 67.9999 40.8169H54.6667C52.4585 40.8193 50.6689 42.5859 50.6665 44.7665V46.0835H47.9999V44.7665C47.9999 44.0397 47.403 43.4502 46.6669 43.4502C45.9302 43.4502 45.3333 44.0397 45.3333 44.7665V46.0835H44.0002C43.2635 46.0835 42.6666 46.6729 42.6666 47.3998C42.6666 48.1273 43.2635 48.7168 44.0002 48.7168H45.3333V50.0331C45.3333 50.7606 45.9302 51.3501 46.6669 51.3501C47.403 51.3501 47.9999 50.7606 47.9999 50.0331V48.7168H50.6665V67.1498C50.6683 68.6036 51.8616 69.7813 53.3331 69.7831H64.0002C65.4718 69.7813 66.665 68.6036 66.6669 67.1498V65.8335H69.3335C70.8057 65.8317 71.9983 64.6534 72.0001 63.2002V48.7168H74.6667V50.0331C74.6667 50.7606 75.2637 51.3501 75.9998 51.3501C76.7365 51.3501 77.3334 50.7606 77.3334 50.0331V48.7168H78.6664C79.4031 48.7168 80 48.1273 80 47.3998C80 46.6729 79.4031 46.0835 78.6664 46.0835V46.0835ZM66.6669 44.7665C66.6669 44.0397 67.2638 43.4502 67.9999 43.4502C68.7366 43.4502 69.3335 44.0397 69.3335 44.7665V46.0835H66.6669V44.7665ZM64.0002 67.1498H53.3331V44.7665C53.3337 44.0397 53.9307 43.4508 54.6667 43.4502H64.2456C64.0875 43.8715 64.0045 44.3169 64.0002 44.7665V67.1498ZM69.3335 63.2002H66.6669V48.7168H69.3335V63.2002Z" fill="#006B5F"/>
<path d="M77.3334 0H47.9999C46.5277 0.00180817 45.3351 1.17953 45.3333 2.63329V34.2334C45.3351 35.6872 46.5277 36.8649 47.9999 36.8667H77.3334C78.8055 36.8649 79.9982 35.6872 80 34.2334V2.63329C79.9982 1.17953 78.8055 0.00180817 77.3334 0V0ZM77.334 26.3335H64.0002V2.63329H77.3334L77.334 26.3335ZM61.3336 2.63329V26.3335H47.9999V2.63329H61.3336ZM47.9999 34.2334V28.9668H77.3346V34.2334H47.9999Z" fill="#006B5F"/>
<path d="M57.3334 15.7998H58.6664C59.4031 15.7998 60 15.2103 60 14.4835C60 13.756 59.4031 13.1665 58.6664 13.1665H57.3334C56.5967 13.1665 55.9998 13.756 55.9998 14.4835C55.9998 15.2103 56.5967 15.7998 57.3334 15.7998V15.7998Z" fill="#006B5F"/>
<path d="M66.6669 15.7998H67.9999C68.7366 15.7998 69.3335 15.2103 69.3335 14.4835C69.3335 13.756 68.7366 13.1665 67.9999 13.1665H66.6669C65.9302 13.1665 65.3333 13.756 65.3333 14.4835C65.3333 15.2103 65.9302 15.7998 66.6669 15.7998V15.7998Z" fill="#006B5F"/>
</g>
<defs>
<clipPath id="clip0_225_7060">
<rect width="80" height="79" fill="white"/>
</clipPath>
</defs>
</svg>
