<svg width="79" height="79" viewBox="0 0 79 79" fill="none" xmlns="http://www.w3.org/2000/svg">
<path d="M66.6562 62.9531H70.3594C70.6868 62.9531 71.0007 62.8231 71.2322 62.5916C71.4637 62.3601 71.5938 62.0461 71.5938 61.7188C71.5938 61.3914 71.4637 61.0774 71.2322 60.8459C71.0007 60.6144 70.6868 60.4844 70.3594 60.4844H66.6562C66.3289 60.4844 66.0149 60.6144 65.7834 60.8459C65.5519 61.0774 65.4219 61.3914 65.4219 61.7188C65.4219 62.0461 65.5519 62.3601 65.7834 62.5916C66.0149 62.8231 66.3289 62.9531 66.6562 62.9531Z" fill="#006B5F"/>
<path d="M75.2969 45.6718H73.1295C73.7266 44.7777 74.1243 43.7657 74.2957 42.7043C74.467 41.6429 74.408 40.557 74.1225 39.5205L74.7269 37.7073C75.1047 36.5746 75.2972 35.3884 75.2969 34.1943V30.8593C75.2969 30.6301 75.233 30.4054 75.1125 30.2104C74.992 30.0154 74.8196 29.8578 74.6145 29.7553C74.4095 29.6528 74.18 29.6094 73.9516 29.6299C73.7233 29.6505 73.5053 29.7343 73.3219 29.8718L72.3344 30.6125C71.7971 31.0162 71.2976 31.468 70.842 31.9621C70.4844 31.1799 70.0437 30.4383 69.5276 29.7502L68.8781 28.8843C68.7631 28.731 68.6141 28.6066 68.4427 28.5209C68.2713 28.4352 68.0823 28.3906 67.8906 28.3906C67.699 28.3906 67.51 28.4352 67.3386 28.5209C67.1672 28.6066 67.0181 28.731 66.9031 28.8843L66.2538 29.7502C65.7376 30.4383 65.2969 31.1799 64.9392 31.9622C64.4837 31.4681 63.9842 31.0163 63.4469 30.6125L62.4594 29.8718C62.276 29.7343 62.0579 29.6505 61.8296 29.6299C61.6013 29.6094 61.3718 29.6528 61.1667 29.7553C60.9617 29.8578 60.7892 30.0154 60.6687 30.2104C60.5482 30.4054 60.4844 30.6301 60.4844 30.8593V34.1943C60.4841 35.3884 60.6765 36.5747 61.0543 37.7075L61.6587 39.5205C61.3733 40.557 61.3142 41.6428 61.4856 42.7042C61.6569 43.7656 62.0546 44.7777 62.6516 45.6718H61.7188C61.3914 45.6718 61.0774 45.8019 60.8459 46.0334C60.6144 46.2648 60.4844 46.5788 60.4844 46.9062V50.671C60.2849 50.6305 58.0156 50.6093 58.0156 50.6093V43.8203C58.0148 43.1091 57.7688 42.42 57.3191 41.8691C56.8694 41.3182 56.2435 40.9392 55.5469 40.796V39.1914C55.5459 38.2914 55.1879 37.4286 54.5515 36.7922C53.9151 36.1558 53.0523 35.7978 52.1523 35.7968H21.9102C21.0102 35.7978 20.1474 36.1558 19.511 36.7922C18.8746 37.4286 18.5166 38.2914 18.5156 39.1914V40.796C17.819 40.9392 17.1931 41.3182 16.7434 41.8691C16.2937 42.42 16.0477 43.1091 16.0469 43.8203V50.6093H12.9609C12.1428 50.6103 11.3584 50.9357 10.7799 51.5142C10.2014 52.0927 9.87594 52.8771 9.875 53.6953V60.4843H7.40625V40.522C7.97348 40.3219 8.48334 39.9864 8.89164 39.5447C9.29994 39.103 9.59437 38.5684 9.7494 37.9872C9.90444 37.406 9.9154 36.7958 9.78134 36.2094C9.64728 35.6231 9.37225 35.0782 8.98008 34.6222L14.3848 28.3168L15.5729 31.4902C15.6467 31.6873 15.7696 31.8622 15.9299 31.9984C16.0903 32.1345 16.2829 32.2275 16.4893 32.2683C16.6956 32.3091 16.909 32.2966 17.1092 32.2317C17.3094 32.1669 17.4896 32.052 17.6329 31.8979L24.3564 24.6654C24.4997 24.5113 24.6012 24.3231 24.6513 24.1188C24.7014 23.9144 24.6984 23.7006 24.6426 23.4977C24.5869 23.2948 24.4802 23.1096 24.3327 22.9595C24.1852 22.8095 24.0017 22.6996 23.7998 22.6404L18.8427 21.1865L17.9057 20.1337C17.536 19.7183 17.0823 19.3861 16.5746 19.1591C16.0669 18.9322 15.5168 18.8156 14.9607 18.8172C14.4046 18.8187 13.8551 18.9383 13.3487 19.1681C12.8423 19.3978 12.3904 19.7325 12.023 20.1499C11.6556 20.5674 11.381 21.0581 11.2174 21.5896C11.0538 22.1211 11.0049 22.6813 11.074 23.2331C11.1431 23.7849 11.3286 24.3157 11.6182 24.7905C11.9078 25.2653 12.2949 25.6731 12.7539 25.9871L12.9915 26.1496L6.79292 33.3812C5.87961 33.2274 4.94183 33.4214 4.16455 33.925C3.38727 34.4286 2.82691 35.2052 2.594 36.1016C2.36109 36.998 2.47253 37.9492 2.90635 38.7674C3.34016 39.5857 4.06486 40.2117 4.9375 40.522V60.4843H3.70312C3.37575 60.4843 3.06178 60.6144 2.83029 60.8459C2.5988 61.0773 2.46875 61.3913 2.46875 61.7187V66.6562C2.46875 66.9836 2.5988 67.2975 2.83029 67.529C3.06178 67.7605 3.37575 67.8906 3.70312 67.8906H75.2969C75.6243 67.8906 75.9382 67.7605 76.1697 67.529C76.4012 67.2975 76.5312 66.9836 76.5312 66.6562V46.9062C76.5312 46.5788 76.4012 46.2648 76.1697 46.0334C75.9382 45.8019 75.6243 45.6718 75.2969 45.6718ZM13.8122 21.8601C13.9425 21.6889 14.1092 21.5487 14.3002 21.4496C14.4913 21.3506 14.7019 21.2952 14.917 21.2874C14.9356 21.2874 14.9541 21.2864 14.9727 21.2864C15.1785 21.2862 15.382 21.3297 15.5697 21.4139C15.7575 21.4982 15.9252 21.6213 16.0618 21.7753L17.2345 23.092C17.3882 23.2647 17.5873 23.3908 17.8091 23.4559L21.1897 24.4474L17.186 28.7543L16.0038 25.5964C15.9187 25.3037 15.7385 25.0478 15.4917 24.8689L14.1493 23.9496C13.9859 23.8378 13.8469 23.694 13.7409 23.5267C13.6349 23.3595 13.564 23.1725 13.5326 22.977C13.5012 22.7815 13.5099 22.5817 13.5582 22.3896C13.6065 22.1976 13.6934 22.0175 13.8136 21.8601H13.8122ZM6.17188 35.7968C6.41601 35.7968 6.65466 35.8692 6.85766 36.0049C7.06065 36.1405 7.21886 36.3333 7.31229 36.5588C7.40572 36.7844 7.43016 37.0326 7.38253 37.272C7.3349 37.5115 7.21734 37.7314 7.04471 37.904C6.87208 38.0767 6.65213 38.1942 6.41269 38.2419C6.17324 38.2895 5.92505 38.265 5.6995 38.1716C5.47395 38.0782 5.28116 37.92 5.14553 37.717C5.00989 37.514 4.9375 37.2753 4.9375 37.0312C4.93787 36.7039 5.06804 36.3902 5.29945 36.1588C5.53086 35.9274 5.84461 35.7972 6.17188 35.7968ZM74.0625 55.5468H62.9531V48.1406H74.0625V55.5468ZM72.8281 33.4515V34.1943C72.8284 35.123 72.6786 36.0457 72.3847 36.9267L71.9383 38.2656H71.8355C71.9693 37.1207 71.9355 35.9625 71.7352 34.8274C72.0515 34.3326 72.4177 33.8715 72.8281 33.4515V33.4515ZM67.8906 31.7121C69.1655 33.6432 69.6839 35.9763 69.3469 38.2656H66.4344C66.0973 35.9763 66.6158 33.6432 67.8906 31.7121V31.7121ZM62.9531 33.4515C63.3636 33.8715 63.7298 34.3326 64.046 34.8274C63.8458 35.9625 63.812 37.1207 63.9457 38.2656H63.8428L63.3966 36.9269C63.1026 36.0458 62.9529 35.1231 62.9531 34.1943V33.4515ZM65.3518 45.0904C64.7862 44.5289 64.3616 43.8415 64.1127 43.0843C63.8637 42.3272 63.7976 41.5219 63.9196 40.7343H71.8616C71.9836 41.5219 71.9175 42.3272 71.6686 43.0843C71.4197 43.8415 70.995 44.5289 70.4294 45.0904L69.8482 45.6718H65.9331L65.3518 45.0904ZM54.9297 43.2031C55.0934 43.2031 55.2504 43.2681 55.3661 43.3838C55.4819 43.4996 55.5469 43.6566 55.5469 43.8203V50.6093H40.7344V43.8203C40.7344 43.6566 40.7994 43.4996 40.9151 43.3838C41.0309 43.2681 41.1879 43.2031 41.3516 43.2031H54.9297ZM21.9102 38.2656H52.1523C52.3978 38.2658 52.6331 38.3634 52.8067 38.537C52.9803 38.7106 53.0779 38.9459 53.0781 39.1914V40.7343H41.3516C40.5334 40.7353 39.749 41.0607 39.1705 41.6392C38.592 42.2177 38.2666 43.0021 38.2656 43.8203V50.6093H35.7969V43.8203C35.7959 43.0021 35.4705 42.2177 34.892 41.6392C34.3135 41.0607 33.5291 40.7353 32.7109 40.7343H20.9844V39.1914C20.9846 38.9459 21.0822 38.7106 21.2558 38.537C21.4294 38.3634 21.6647 38.2658 21.9102 38.2656ZM18.5156 43.8203C18.5156 43.6566 18.5806 43.4996 18.6964 43.3838C18.8121 43.2681 18.9691 43.2031 19.1328 43.2031H32.7109C32.8746 43.2031 33.0316 43.2681 33.1474 43.3838C33.2631 43.4996 33.3281 43.6566 33.3281 43.8203V50.6093H18.5156V43.8203ZM12.3438 53.6953C12.3438 53.5316 12.4088 53.3746 12.5245 53.2588C12.6403 53.1431 12.7972 53.0781 12.9609 53.0781H59.8672C60.0309 53.0781 60.1879 53.1431 60.3036 53.2588C60.4194 53.3746 60.4844 53.5316 60.4844 53.6953V60.4843H12.3438V53.6953ZM4.9375 62.9531H12.3438V65.4218H4.9375V62.9531ZM14.8125 62.9531H60.4844V65.4218H14.8125V62.9531ZM74.0625 65.4218H62.9531V58.0156H74.0625V65.4218Z" fill="#006B5F"/>
<path d="M66.6562 50.6094C66.3289 50.6094 66.0149 50.7394 65.7834 50.9709C65.5519 51.2024 65.4219 51.5164 65.4219 51.8438C65.4219 52.1711 65.5519 52.4851 65.7834 52.7166C66.0149 52.9481 66.3289 53.0781 66.6562 53.0781H70.3594C70.6868 53.0781 71.0007 52.9481 71.2322 52.7166C71.4637 52.4851 71.5938 52.1711 71.5938 51.8438C71.5938 51.5164 71.4637 51.2024 71.2322 50.9709C71.0007 50.7394 70.6868 50.6094 70.3594 50.6094H66.6562Z" fill="#006B5F"/>
<path d="M30.8594 28.3906H55.5469C55.8743 28.3906 56.1882 28.2606 56.4197 28.0291C56.6512 27.7976 56.7812 27.4836 56.7812 27.1562V12.3438C56.7812 12.0164 56.6512 11.7024 56.4197 11.4709C56.1882 11.2394 55.8743 11.1094 55.5469 11.1094H30.8594C30.532 11.1094 30.218 11.2394 29.9865 11.4709C29.755 11.7024 29.625 12.0164 29.625 12.3438V27.1562C29.625 27.4836 29.755 27.7976 29.9865 28.0291C30.218 28.2606 30.532 28.3906 30.8594 28.3906ZM32.0938 25.348L38.1082 21.3383L40.03 23.2601L36.6077 25.9219H32.0938V25.348ZM40.6288 25.9219L48.0383 20.1589L53.8013 25.9219H40.6288ZM54.3125 13.5781V22.9418L49.0135 17.6428C48.8007 17.43 48.5176 17.3023 48.2174 17.2836C47.9171 17.2649 47.6204 17.3565 47.3829 17.5412L41.9939 21.7326L39.1385 18.8771C38.9367 18.6753 38.6712 18.5497 38.3873 18.5215C38.1033 18.4934 37.8183 18.5645 37.5809 18.7228L32.0938 22.3811V13.5781H54.3125Z" fill="#006B5F"/>
<path d="M41.9688 18.8242C43.0766 18.8242 43.9746 17.9262 43.9746 16.8184C43.9746 15.7106 43.0766 14.8125 41.9688 14.8125C40.8609 14.8125 39.9629 15.7106 39.9629 16.8184C39.9629 17.9262 40.8609 18.8242 41.9688 18.8242Z" fill="#006B5F"/>
</svg>
