<svg width="79" height="79" viewBox="0 0 79 79" fill="none" xmlns="http://www.w3.org/2000/svg">
<path d="M75.2969 43.2031H65.4219V39.5C65.4219 39.1726 65.2918 38.8587 65.0603 38.6272C64.8288 38.3957 64.5149 38.2656 64.1875 38.2656H46.9062C46.5789 38.2656 46.2649 38.3957 46.0334 38.6272C45.8019 38.8587 45.6719 39.1726 45.6719 39.5V43.2031H33.3281V39.5C33.3281 39.1726 33.1981 38.8587 32.9666 38.6272C32.7351 38.3957 32.4211 38.2656 32.0938 38.2656H14.8125C14.4851 38.2656 14.1712 38.3957 13.9397 38.6272C13.7082 38.8587 13.5781 39.1726 13.5781 39.5V43.2031H3.70312C3.37575 43.2031 3.06178 43.3332 2.83029 43.5647C2.5988 43.7962 2.46875 44.1101 2.46875 44.4375V49.375C2.46875 49.7024 2.5988 50.0163 2.83029 50.2478C3.06178 50.4793 3.37575 50.6094 3.70312 50.6094H4.9375V75.2969C4.9375 75.6243 5.06755 75.9382 5.29904 76.1697C5.53053 76.4012 5.8445 76.5312 6.17188 76.5312H72.8281C73.1555 76.5312 73.4695 76.4012 73.701 76.1697C73.9324 75.9382 74.0625 75.6243 74.0625 75.2969V50.6094H75.2969C75.6243 50.6094 75.9382 50.4793 76.1697 50.2478C76.4012 50.0163 76.5312 49.7024 76.5312 49.375V44.4375C76.5312 44.1101 76.4012 43.7962 76.1697 43.5647C75.9382 43.3332 75.6243 43.2031 75.2969 43.2031ZM48.1406 40.7344H62.9531V43.2031H48.1406V40.7344ZM16.0469 40.7344H30.8594V43.2031H16.0469V40.7344ZM38.2656 74.0625H7.40625V50.6094H38.2656V74.0625ZM71.5938 74.0625H40.7344V50.6094H71.5938V74.0625ZM74.0625 48.1406H4.9375V45.6719H74.0625V48.1406Z" fill="black"/>
<path d="M33.3281 58.0156H35.7969V62.9531H33.3281V58.0156Z" fill="black"/>
<path d="M43.2031 58.0156H45.6719V62.9531H43.2031V58.0156Z" fill="black"/>
<path d="M75.2969 9.875C75.6243 9.875 75.9382 9.74495 76.1697 9.51346C76.4012 9.28197 76.5312 8.968 76.5312 8.64062V3.70312C76.5312 3.37575 76.4012 3.06178 76.1697 2.83029C75.9382 2.5988 75.6243 2.46875 75.2969 2.46875H3.70312C3.37575 2.46875 3.06178 2.5988 2.83029 2.83029C2.5988 3.06178 2.46875 3.37575 2.46875 3.70312V8.64062C2.46875 8.968 2.5988 9.28197 2.83029 9.51346C3.06178 9.74495 3.37575 9.875 3.70312 9.875H4.9375V18.5156H3.70312C3.37575 18.5156 3.06178 18.6457 2.83029 18.8772C2.5988 19.1087 2.46875 19.4226 2.46875 19.75V24.6875C2.46875 25.0149 2.5988 25.3288 2.83029 25.5603C3.06178 25.7918 3.37575 25.9219 3.70312 25.9219H75.2969C75.6243 25.9219 75.9382 25.7918 76.1697 25.5603C76.4012 25.3288 76.5312 25.0149 76.5312 24.6875V19.75C76.5312 19.4226 76.4012 19.1087 76.1697 18.8772C75.9382 18.6457 75.6243 18.5156 75.2969 18.5156H74.0625V9.875H75.2969ZM4.9375 4.9375H74.0625V7.40625H4.9375V4.9375ZM40.7344 18.5156V9.875H56.7812V18.5156H40.7344ZM38.2656 9.875V18.5156H23.4531V9.875H38.2656ZM7.40625 9.875H20.9844V18.5156H7.40625V9.875ZM74.0625 23.4531H4.9375V20.9844H74.0625V23.4531ZM71.5938 18.5156H59.25V9.875H71.5938V18.5156Z" fill="black"/>
<path d="M41.9688 12.3438H44.4375V16.0469H41.9688V12.3438Z" fill="black"/>
<path d="M60.4844 12.3438H62.9531V16.0469H60.4844V12.3438Z" fill="black"/>
<path d="M24.6875 12.3438H27.1562V16.0469H24.6875V12.3438Z" fill="black"/>
<path d="M8.64062 12.3438H11.1094V16.0469H8.64062V12.3438Z" fill="black"/>
</svg>
