<svg width="79" height="79" viewBox="0 0 79 79" fill="none" xmlns="http://www.w3.org/2000/svg">
<path d="M75.1074 8.69504H61.2645V3.8927C61.2645 3.60625 61.1507 3.33152 60.9481 3.12897C60.7456 2.92642 60.4708 2.81262 60.1844 2.81262H55.5789C55.4371 2.81254 55.2966 2.84042 55.1655 2.89467C55.0344 2.94892 54.9153 3.02848 54.815 3.12879C54.7147 3.2291 54.6352 3.3482 54.5809 3.47928C54.5267 3.61035 54.4988 3.75084 54.4989 3.8927V8.69504H42.8828V3.8927C42.8829 3.75084 42.855 3.61035 42.8007 3.47928C42.7465 3.3482 42.6669 3.2291 42.5666 3.12879C42.4663 3.02848 42.3472 2.94892 42.2161 2.89467C42.085 2.84042 41.9446 2.81254 41.8027 2.81262H37.1972C37.0554 2.81254 36.9149 2.84042 36.7838 2.89467C36.6527 2.94892 36.5336 3.02848 36.4333 3.12879C36.333 3.2291 36.2535 3.3482 36.1992 3.47928C36.145 3.61035 36.1171 3.75084 36.1172 3.8927V8.69504H24.5023V3.8927C24.5024 3.75084 24.4745 3.61035 24.4203 3.47928C24.366 3.3482 24.2865 3.2291 24.1862 3.12879C24.0858 3.02848 23.9667 2.94892 23.8357 2.89467C23.7046 2.84042 23.5641 2.81254 23.4222 2.81262H18.8156C18.5291 2.81262 18.2544 2.92642 18.0518 3.12897C17.8493 3.33152 17.7355 3.60625 17.7355 3.8927V8.69504H3.89258C3.75072 8.69495 3.61023 8.72284 3.47915 8.77709C3.34808 8.83134 3.22898 8.91089 3.12867 9.0112C3.02836 9.11151 2.9488 9.23061 2.89455 9.36169C2.8403 9.49277 2.81242 9.63325 2.8125 9.77511V75.1075C2.81242 75.2494 2.8403 75.3898 2.89455 75.5209C2.9488 75.652 3.02836 75.7711 3.12867 75.8714C3.22898 75.9717 3.34808 76.0513 3.47915 76.1055C3.61023 76.1598 3.75072 76.1877 3.89258 76.1876H75.1074C75.2492 76.1877 75.3897 76.1598 75.5208 76.1055C75.6519 76.0513 75.771 75.9717 75.8713 75.8714C75.9716 75.7711 76.0511 75.652 76.1054 75.5209C76.1596 75.3898 76.1875 75.2494 76.1874 75.1075V9.77511C76.1875 9.63325 76.1596 9.49277 76.1054 9.36169C76.0511 9.23061 75.9716 9.11151 75.8713 9.0112C75.771 8.91089 75.6519 8.83134 75.5208 8.77709C75.3897 8.72284 75.2492 8.69495 75.1074 8.69504V8.69504ZM56.6578 4.97278H59.1031V14.5774H56.6578V4.97278ZM38.2761 4.97278H40.7214V14.5774H38.2773L38.2761 4.97278ZM19.8944 4.97278H22.3422V14.5774H19.8956L19.8944 4.97278ZM4.97266 10.8552H17.7355V15.6575C17.7355 15.944 17.8493 16.2187 18.0518 16.4213C18.2544 16.6238 18.5291 16.7376 18.8156 16.7376H23.421C23.5629 16.7377 23.7034 16.7098 23.8344 16.6556C23.9655 16.6013 24.0846 16.5217 24.1849 16.4214C24.2852 16.3211 24.3648 16.202 24.419 16.071C24.4733 15.9399 24.5012 15.7994 24.5011 15.6575V10.8552H36.1172V15.6575C36.1171 15.7994 36.145 15.9399 36.1992 16.071C36.2535 16.202 36.333 16.3211 36.4333 16.4214C36.5336 16.5217 36.6527 16.6013 36.7838 16.6556C36.9149 16.7098 37.0554 16.7377 37.1972 16.7376H41.8027C41.9446 16.7377 42.085 16.7098 42.2161 16.6556C42.3472 16.6013 42.4663 16.5217 42.5666 16.4214C42.6669 16.3211 42.7465 16.202 42.8007 16.071C42.855 15.9399 42.8829 15.7994 42.8828 15.6575V10.8552H54.4976V15.6575C54.4975 15.7994 54.5254 15.9399 54.5797 16.071C54.6339 16.202 54.7135 16.3211 54.8138 16.4214C54.9141 16.5217 55.0332 16.6013 55.1643 16.6556C55.2954 16.7098 55.4358 16.7377 55.5777 16.7376H60.1832C60.4696 16.7376 60.7443 16.6238 60.9469 16.4213C61.1494 16.2187 61.2632 15.944 61.2632 15.6575V10.8552H74.0261V23.2144H4.97266V10.8552ZM4.97266 74.0274V25.3745H74.0273V74.0274H4.97266Z" fill="#006B5F"/>
<path d="M17.0714 30.2515C16.0908 30.2515 15.1323 30.5422 14.317 31.087C13.5016 31.6318 12.8662 32.4061 12.4909 33.312C12.1157 34.218 12.0175 35.2148 12.2088 36.1766C12.4001 37.1383 12.8723 38.0217 13.5657 38.7151C14.259 39.4084 15.1424 39.8806 16.1042 40.0719C17.0659 40.2632 18.0628 40.165 18.9687 39.7898C19.8746 39.4145 20.6489 38.7791 21.1937 37.9638C21.7385 37.1485 22.0293 36.1899 22.0293 35.2093C22.028 33.8948 21.5052 32.6345 20.5757 31.705C19.6462 30.7755 18.3859 30.2528 17.0714 30.2515V30.2515ZM17.0714 38.007C16.5181 38.007 15.9772 37.843 15.5171 37.5355C15.057 37.2281 14.6984 36.7912 14.4866 36.28C14.2749 35.7688 14.2195 35.2062 14.3274 34.6635C14.4354 34.1208 14.7018 33.6223 15.0931 33.2311C15.4844 32.8398 15.9829 32.5733 16.5256 32.4654C17.0683 32.3574 17.6308 32.4128 18.142 32.6246C18.6532 32.8363 19.0902 33.1949 19.3976 33.655C19.705 34.1151 19.8691 34.656 19.8691 35.2093C19.8685 35.9511 19.5735 36.6624 19.049 37.1869C18.5244 37.7114 17.8132 38.0064 17.0714 38.007V38.007Z" fill="#006B5F"/>
<path d="M32.0242 30.2515C31.0436 30.2515 30.085 30.5422 29.2697 31.087C28.4544 31.6318 27.8189 32.4061 27.4437 33.312C27.0684 34.218 26.9702 35.2148 27.1615 36.1766C27.3529 37.1383 27.825 38.0217 28.5184 38.7151C29.2118 39.4084 30.0952 39.8806 31.0569 40.0719C32.0187 40.2632 33.0155 40.165 33.9214 39.7898C34.8274 39.4145 35.6017 38.7791 36.1465 37.9638C36.6912 37.1485 36.982 36.1899 36.982 35.2093C36.9805 33.8949 36.4577 32.6347 35.5283 31.7052C34.5988 30.7758 33.3386 30.2529 32.0242 30.2515V30.2515ZM32.0242 38.007C31.4708 38.007 30.9299 37.843 30.4698 37.5355C30.0097 37.2281 29.6512 36.7912 29.4394 36.28C29.2277 35.7688 29.1723 35.2062 29.2802 34.6635C29.3882 34.1208 29.6546 33.6223 30.0459 33.2311C30.4371 32.8398 30.9356 32.5733 31.4783 32.4654C32.021 32.3574 32.5836 32.4128 33.0948 32.6246C33.606 32.8363 34.0429 33.1949 34.3504 33.655C34.6578 34.1151 34.8219 34.656 34.8219 35.2093C34.821 35.9511 34.526 36.6622 34.0015 37.1867C33.477 37.7112 32.7659 38.0062 32.0242 38.007V38.007Z" fill="#006B5F"/>
<path d="M46.9758 30.2515C45.9952 30.2515 45.0367 30.5422 44.2214 31.087C43.4061 31.6318 42.7706 32.4061 42.3953 33.312C42.0201 34.218 41.9219 35.2148 42.1132 36.1766C42.3045 37.1383 42.7767 38.0217 43.4701 38.7151C44.1634 39.4084 45.0468 39.8806 46.0086 40.0719C46.9703 40.2632 47.9672 40.165 48.8731 39.7898C49.779 39.4145 50.5533 38.7791 51.0981 37.9638C51.6429 37.1485 51.9337 36.1899 51.9337 35.2093C51.9322 33.8949 51.4094 32.6347 50.4799 31.7052C49.5505 30.7758 48.2903 30.2529 46.9758 30.2515V30.2515ZM46.9758 38.007C46.4225 38.007 45.8816 37.843 45.4215 37.5355C44.9614 37.2281 44.6028 36.7912 44.3911 36.28C44.1793 35.7688 44.1239 35.2062 44.2319 34.6635C44.3398 34.1208 44.6063 33.6223 44.9975 33.2311C45.3888 32.8398 45.8873 32.5733 46.43 32.4654C46.9727 32.3574 47.5352 32.4128 48.0464 32.6246C48.5577 32.8363 48.9946 33.1949 49.302 33.655C49.6094 34.1151 49.7735 34.656 49.7735 35.2093C49.7729 35.9511 49.4779 36.6624 48.9534 37.1869C48.4288 37.7114 47.7176 38.0064 46.9758 38.007V38.007Z" fill="#006B5F"/>
<path d="M61.9286 30.2515C60.948 30.2513 59.9894 30.542 59.174 31.0867C58.3586 31.6314 57.723 32.4057 57.3477 33.3116C56.9723 34.2175 56.8741 35.2144 57.0653 36.1762C57.2565 37.138 57.7287 38.0214 58.422 38.7149C59.1153 39.4083 59.9988 39.8805 60.9605 40.0719C61.9222 40.2632 62.9191 40.1651 63.8251 39.7899C64.7311 39.4146 65.5054 38.7792 66.0502 37.9638C66.595 37.1485 66.8858 36.1899 66.8858 35.2093C66.8845 33.8949 66.3618 32.6347 65.4325 31.7053C64.5031 30.7758 63.243 30.2529 61.9286 30.2515V30.2515ZM61.9286 38.007C61.3752 38.0072 60.8342 37.8432 60.3741 37.5358C59.9139 37.2285 59.5552 36.7916 59.3434 36.2804C59.1315 35.7692 59.0761 35.2066 59.1839 34.6639C59.2918 34.1212 59.5582 33.6226 59.9495 33.2313C60.3407 32.8399 60.8392 32.5734 61.3819 32.4654C61.9246 32.3574 62.4872 32.4128 62.9985 32.6245C63.5097 32.8363 63.9467 33.1948 64.2541 33.6549C64.5616 34.115 64.7257 34.656 64.7257 35.2093C64.725 35.951 64.4301 36.6622 63.9057 37.1867C63.3813 37.7112 62.6703 38.0062 61.9286 38.007V38.007Z" fill="#006B5F"/>
<path d="M17.0714 44.7461C16.0907 44.746 15.1319 45.0367 14.3164 45.5815C13.5009 46.1263 12.8652 46.9007 12.4899 47.8068C12.1145 48.7128 12.0162 49.7099 12.2076 50.6718C12.3989 51.6337 12.8711 52.5173 13.5646 53.2108C14.2581 53.9042 15.1417 54.3765 16.1036 54.5678C17.0655 54.7591 18.0625 54.6609 18.9686 54.2855C19.8747 53.9101 20.6491 53.2745 21.1939 52.459C21.7387 51.6435 22.0294 50.6847 22.0293 49.704C22.0278 48.3895 21.505 47.1293 20.5755 46.1998C19.6461 45.2704 18.3859 44.7476 17.0714 44.7461V44.7461ZM17.0714 52.5023C16.5179 52.5024 15.9768 52.3384 15.5166 52.031C15.0563 51.7236 14.6975 51.2866 14.4857 50.7753C14.2738 50.2639 14.2183 49.7013 14.3262 49.1584C14.4341 48.6155 14.7005 48.1169 15.0919 47.7255C15.4832 47.334 15.9818 47.0675 16.5246 46.9594C17.0675 46.8514 17.6302 46.9068 18.1415 47.1186C18.6529 47.3304 19.09 47.689 19.3975 48.1492C19.705 48.6094 19.8691 49.1505 19.8691 49.704C19.8677 50.4453 19.5723 51.1558 19.0479 51.6797C18.5235 52.2037 17.8127 52.4984 17.0714 52.4992V52.5023Z" fill="#006B5F"/>
<path d="M32.0242 44.7461C31.0434 44.746 30.0847 45.0367 29.2691 45.5815C28.4536 46.1263 27.818 46.9007 27.4426 47.8068C27.0673 48.7128 26.969 49.7099 27.1603 50.6718C27.3516 51.6337 27.8239 52.5173 28.5174 53.2108C29.2109 53.9042 30.0944 54.3765 31.0564 54.5678C32.0183 54.7591 33.0153 54.6609 33.9214 54.2855C34.8274 53.9101 35.6018 53.2745 36.1466 52.459C36.6914 51.6435 36.9822 50.6847 36.982 49.704C36.9804 48.3895 36.4575 47.1294 35.5281 46.2C34.5987 45.2706 33.3386 44.7477 32.0242 44.7461V44.7461ZM32.0242 52.5023C31.4707 52.5024 30.9296 52.3384 30.4693 52.031C30.0091 51.7236 29.6503 51.2866 29.4384 50.7753C29.2265 50.2639 29.171 49.7013 29.2789 49.1584C29.3868 48.6155 29.6533 48.1169 30.0446 47.7255C30.4359 47.334 30.9346 47.0675 31.4774 46.9594C32.0202 46.8514 32.5829 46.9068 33.0943 47.1186C33.6056 47.3304 34.0427 47.689 34.3502 48.1492C34.6577 48.6094 34.8219 49.1505 34.8219 49.704C34.8202 50.4452 34.5249 51.1556 34.0005 51.6796C33.4761 52.2035 32.7654 52.4982 32.0242 52.4992V52.5023Z" fill="#006B5F"/>
<path d="M46.9758 44.7461C45.9951 44.746 45.0363 45.0367 44.2208 45.5815C43.4053 46.1263 42.7697 46.9007 42.3943 47.8068C42.0189 48.7128 41.9207 49.7099 42.112 50.6718C42.3033 51.6337 42.7755 52.5173 43.469 53.2108C44.1625 53.9042 45.0461 54.3765 46.008 54.5678C46.9699 54.7591 47.967 54.6609 48.873 54.2855C49.7791 53.9101 50.5535 53.2745 51.0983 52.459C51.6431 51.6435 51.9338 50.6847 51.9337 49.704C51.9321 48.3895 51.4092 47.1294 50.4798 46.2C49.5503 45.2706 48.2902 44.7477 46.9758 44.7461V44.7461ZM46.9758 52.5023C46.4223 52.5024 45.8813 52.3384 45.421 52.031C44.9607 51.7236 44.602 51.2866 44.3901 50.7753C44.1782 50.2639 44.1227 49.7013 44.2306 49.1584C44.3385 48.6155 44.6049 48.1169 44.9963 47.7255C45.3876 47.334 45.8862 47.0675 46.4291 46.9594C46.9719 46.8514 47.5346 46.9068 48.0459 47.1186C48.5573 47.3304 48.9944 47.689 49.3019 48.1492C49.6094 48.6094 49.7735 49.1505 49.7735 49.704C49.7721 50.4453 49.4768 51.1558 48.9523 51.6797C48.4279 52.2037 47.7172 52.4984 46.9758 52.4992V52.5023Z" fill="#006B5F"/>
<path d="M61.9287 44.7461C60.9479 44.7458 59.9891 45.0365 59.1735 45.5812C58.3579 46.1259 57.7222 46.9003 57.3467 47.8063C56.9713 48.7124 56.8729 49.7094 57.0642 50.6714C57.2554 51.6333 57.7276 52.517 58.4211 53.2105C59.1146 53.9041 59.9981 54.3764 60.9601 54.5678C61.922 54.7591 62.9191 54.6609 63.8252 54.2856C64.7313 53.9102 65.5057 53.2746 66.0505 52.459C66.5954 51.6435 66.8861 50.6847 66.886 49.704C66.8845 48.3896 66.3618 47.1295 65.4324 46.2001C64.5031 45.2706 63.2431 44.7477 61.9287 44.7461V44.7461ZM61.9287 52.5023C61.3752 52.5025 60.8341 52.3386 60.3737 52.0313C59.9134 51.7239 59.5545 51.287 59.3425 50.7757C59.1305 50.2644 59.0749 49.7017 59.1828 49.1588C59.2906 48.6159 59.557 48.1172 59.9483 47.7257C60.3396 47.3342 60.8382 47.0676 61.3811 46.9595C61.924 46.8514 62.4867 46.9068 62.9981 47.1185C63.5095 47.3303 63.9466 47.689 64.2541 48.1492C64.5617 48.6094 64.7258 49.1504 64.7258 49.704C64.7243 50.4452 64.4291 51.1556 63.9048 51.6795C63.3805 52.2035 62.6699 52.4982 61.9287 52.4992V52.5023Z" fill="#006B5F"/>
<path d="M17.0714 59.2354C16.0908 59.2354 15.1323 59.5261 14.317 60.0709C13.5016 60.6157 12.8662 61.39 12.4909 62.2959C12.1157 63.2019 12.0175 64.1987 12.2088 65.1605C12.4001 66.1222 12.8723 67.0056 13.5657 67.699C14.259 68.3923 15.1424 68.8645 16.1042 69.0558C17.0659 69.2471 18.0628 69.1489 18.9687 68.7737C19.8746 68.3984 20.6489 67.763 21.1937 66.9477C21.7385 66.1323 22.0293 65.1738 22.0293 64.1932C22.028 62.8787 21.5052 61.6184 20.5757 60.6889C19.6462 59.7594 18.3859 59.2367 17.0714 59.2354V59.2354ZM17.0714 66.9909C16.5181 66.9909 15.9772 66.8268 15.5171 66.5194C15.057 66.212 14.6984 65.7751 14.4866 65.2639C14.2749 64.7526 14.2195 64.1901 14.3274 63.6474C14.4354 63.1047 14.7018 62.6062 15.0931 62.2149C15.4844 61.8237 15.9829 61.5572 16.5256 61.4493C17.0683 61.3413 17.6308 61.3967 18.142 61.6085C18.6532 61.8202 19.0902 62.1788 19.3976 62.6389C19.705 63.099 19.8691 63.6399 19.8691 64.1932C19.8685 64.935 19.5735 65.6462 19.049 66.1708C18.5244 66.6953 17.8132 66.9903 17.0714 66.9909V66.9909Z" fill="#006B5F"/>
<path d="M32.0242 59.2354C31.0436 59.2354 30.085 59.5261 29.2697 60.0709C28.4544 60.6157 27.8189 61.39 27.4437 62.2959C27.0684 63.2019 26.9702 64.1987 27.1615 65.1605C27.3529 66.1222 27.825 67.0056 28.5184 67.699C29.2118 68.3923 30.0952 68.8645 31.0569 69.0558C32.0187 69.2471 33.0155 69.1489 33.9214 68.7737C34.8274 68.3984 35.6017 67.763 36.1465 66.9477C36.6912 66.1323 36.982 65.1738 36.982 64.1932C36.9805 62.8788 36.4577 61.6186 35.5283 60.6891C34.5988 59.7596 33.3386 59.2368 32.0242 59.2354ZM32.0242 66.9909C31.4708 66.9909 30.9299 66.8268 30.4698 66.5194C30.0097 66.212 29.6512 65.7751 29.4394 65.2639C29.2277 64.7526 29.1723 64.1901 29.2802 63.6474C29.3882 63.1047 29.6546 62.6062 30.0459 62.2149C30.4371 61.8237 30.9356 61.5572 31.4783 61.4493C32.021 61.3413 32.5836 61.3967 33.0948 61.6085C33.606 61.8202 34.0429 62.1788 34.3504 62.6389C34.6578 63.099 34.8219 63.6399 34.8219 64.1932C34.821 64.935 34.526 65.6461 34.0015 66.1706C33.477 66.6951 32.7659 66.9901 32.0242 66.9909V66.9909Z" fill="#006B5F"/>
<path d="M46.9758 59.2354C45.9952 59.2354 45.0367 59.5261 44.2214 60.0709C43.4061 60.6157 42.7706 61.39 42.3953 62.2959C42.0201 63.2019 41.9219 64.1987 42.1132 65.1605C42.3045 66.1222 42.7767 67.0056 43.4701 67.699C44.1634 68.3923 45.0468 68.8645 46.0086 69.0558C46.9703 69.2471 47.9672 69.1489 48.8731 68.7737C49.779 68.3984 50.5533 67.763 51.0981 66.9477C51.6429 66.1323 51.9337 65.1738 51.9337 64.1932C51.9322 62.8788 51.4094 61.6186 50.4799 60.6891C49.5505 59.7596 48.2903 59.2368 46.9758 59.2354V59.2354ZM46.9758 66.9909C46.4225 66.9909 45.8816 66.8268 45.4215 66.5194C44.9614 66.212 44.6028 65.7751 44.3911 65.2639C44.1793 64.7526 44.1239 64.1901 44.2319 63.6474C44.3398 63.1047 44.6063 62.6062 44.9975 62.2149C45.3888 61.8237 45.8873 61.5572 46.43 61.4493C46.9727 61.3413 47.5352 61.3967 48.0464 61.6085C48.5577 61.8202 48.9946 62.1788 49.302 62.6389C49.6094 63.099 49.7735 63.6399 49.7735 64.1932C49.7729 64.935 49.4779 65.6462 48.9534 66.1708C48.4288 66.6953 47.7176 66.9903 46.9758 66.9909V66.9909Z" fill="#006B5F"/>
<path d="M61.9286 59.2354C60.948 59.2352 59.9894 59.5259 59.174 60.0706C58.3586 60.6153 57.723 61.3896 57.3477 62.2955C56.9723 63.2014 56.8741 64.1983 57.0653 65.1601C57.2565 66.1218 57.7287 67.0053 58.422 67.6987C59.1153 68.3922 59.9988 68.8644 60.9605 69.0558C61.9222 69.2471 62.9191 69.149 63.8251 68.7738C64.7311 68.3985 65.5054 67.7631 66.0502 66.9477C66.595 66.1324 66.8858 65.1738 66.8858 64.1932C66.8845 62.8788 66.3618 61.6186 65.4325 60.6891C64.5031 59.7597 63.243 59.2368 61.9286 59.2354V59.2354ZM61.9286 66.9909C61.3752 66.9911 60.8342 66.8271 60.3741 66.5197C59.9139 66.2124 59.5552 65.7755 59.3434 65.2643C59.1315 64.7531 59.0761 64.1905 59.1839 63.6478C59.2918 63.105 59.5582 62.6065 59.9495 62.2152C60.3407 61.8238 60.8392 61.5573 61.3819 61.4493C61.9246 61.3413 62.4872 61.3967 62.9985 61.6084C63.5097 61.8201 63.9467 62.1787 64.2541 62.6388C64.5616 63.0989 64.7257 63.6399 64.7257 64.1932C64.725 64.9349 64.4301 65.646 63.9057 66.1706C63.3813 66.6951 62.6703 66.9901 61.9286 66.9909V66.9909Z" fill="#006B5F"/>
</svg>
