<svg width="80" height="80" viewBox="0 0 80 80" fill="none" xmlns="http://www.w3.org/2000/svg">
<g clip-path="url(#clip0_225_7647)">
<path d="M58.1832 76.8772C57.2072 76.879 56.2443 76.6519 55.3718 76.2138L40.665 68.9048C40.4206 68.7789 40.2245 68.5757 40.1071 68.3269C39.9896 68.078 39.9574 67.7972 40.0153 67.5281C40.0626 67.2608 40.1955 67.016 40.3938 66.8309C40.5922 66.6458 40.8452 66.5303 41.1149 66.5019L52.5104 65.363C52.8692 65.3354 53.2102 65.1953 53.485 64.9625C53.6831 64.7822 53.8369 64.5585 53.9345 64.3088C54.032 64.0592 54.0706 63.7903 54.0473 63.5232C54.0117 63.0766 53.8004 62.6624 53.46 62.3718C53.2874 62.2286 53.0879 62.1217 52.8733 62.0572C52.6586 61.9927 52.4333 61.972 52.2105 61.9963L43.339 63.0601C43.0724 63.0946 42.8018 63.042 42.5673 62.9102C42.3329 62.7784 42.1472 62.5744 42.0378 62.3284C41.9283 62.0825 41.901 61.8077 41.9598 61.545C42.0187 61.2822 42.1605 61.0455 42.3644 60.8699L60.3073 45.1005C60.478 44.9594 60.6173 44.784 60.7163 44.5857C60.8153 44.3874 60.8718 44.1706 60.8821 43.9491C60.9126 43.5292 60.7831 43.1133 60.5197 42.7852C60.3825 42.6193 60.2134 42.4827 60.0223 42.3838C59.8312 42.2849 59.6222 42.2256 59.4077 42.2095C59.153 42.1825 58.8956 42.2075 58.6508 42.2827C58.406 42.358 58.1789 42.4821 57.9832 42.6475C57.7315 42.853 57.4098 42.9522 57.0863 42.9242C56.7628 42.8962 56.4629 42.7432 56.2501 42.4975C56.0373 42.2518 55.9283 41.9328 55.9463 41.608C55.9643 41.2833 56.1078 40.9783 56.3464 40.7577L61.2569 36.515C61.5909 36.226 61.7974 35.8167 61.8317 35.3761C61.8495 35.1505 61.8222 34.9236 61.7514 34.7087C61.6806 34.4938 61.5677 34.2952 61.4194 34.1245C61.1182 33.7962 60.7026 33.5963 60.2585 33.5661C59.8144 33.5358 59.3757 33.6774 59.0328 33.9618L56.2589 36.3648C56.0105 36.5646 55.6953 36.6618 55.3777 36.6366C55.0601 36.6113 54.7641 36.4655 54.5503 36.2289C54.3364 35.9924 54.2209 35.683 54.2273 35.3639C54.2337 35.0449 54.3615 34.7403 54.5846 34.5125C54.9135 34.2129 55.112 33.7962 55.1377 33.3516C55.1634 32.9071 55.0142 32.4702 54.722 32.1346C54.4196 31.8108 54.0044 31.6159 53.5625 31.5902C53.1205 31.5646 52.6857 31.7102 52.3479 31.9969L49.1367 34.8129C49.0204 34.9504 48.8758 35.0611 48.7128 35.1374C48.5499 35.2138 48.3723 35.254 48.1924 35.2553C48.0125 35.2566 47.8344 35.219 47.6704 35.145C47.5063 35.071 47.3601 34.9624 47.2419 34.8266C47.1236 34.6908 47.036 34.531 46.985 34.3582C46.9341 34.1854 46.921 34.0035 46.9467 33.8252C46.9723 33.6468 47.0362 33.4761 47.1338 33.3247C47.2315 33.1733 47.3606 33.0449 47.5123 32.9481C47.84 32.6518 48.0375 32.238 48.0621 31.7967C48.0859 31.5707 48.0615 31.3422 47.9904 31.1264C47.9193 30.9107 47.8032 30.7125 47.6498 30.5451C47.3563 30.2139 46.9454 30.0104 46.5045 29.9777C46.0636 29.9449 45.6273 30.0856 45.2882 30.3699L29.3195 44.4247C28.0148 45.5809 26.9604 46.9924 26.2212 48.5723C25.4819 50.1522 25.0735 51.867 25.0212 53.611C25.0158 53.7823 24.9752 53.9507 24.9022 54.1057C24.8291 54.2607 24.725 54.3991 24.5964 54.5121L20.5854 58.0289C20.4005 58.1927 20.1712 58.298 19.9266 58.3314C19.682 58.3648 19.433 58.3249 19.211 58.2167L11.0767 54.1742C10.3235 53.8064 9.65073 53.2926 9.09721 52.6625C8.54369 52.0325 8.12045 51.2987 7.852 50.5037C7.58355 49.7087 7.47523 48.8682 7.5333 48.031C7.59137 47.1938 7.81468 46.3764 8.1903 45.6262L23.6342 14.4753C24.0011 13.7224 24.5138 13.0501 25.1425 12.4974C25.7712 11.9447 26.5033 11.5228 27.2963 11.2561C28.0892 10.9894 28.9272 10.8833 29.7615 10.9439C30.5958 11.0046 31.4097 11.2307 32.1559 11.6093L76.476 33.6489C77.9847 34.4015 79.1336 35.7232 79.6701 37.3236C80.2066 38.924 80.0869 40.6723 79.3373 42.1844L63.8934 73.3478C63.3623 74.4089 62.5469 75.301 61.5385 75.9244C60.53 76.5477 59.3682 76.8776 58.1832 76.8772ZM45.6881 68.5919L56.5338 73.9736C57.4508 74.4259 58.5091 74.4969 59.478 74.171C60.447 73.8451 61.2481 73.1489 61.7068 72.2339L77.1007 41.0831C77.5529 40.1628 77.624 39.1009 77.2988 38.1283C76.9736 37.1558 76.2782 36.3511 75.3639 35.8892L31.0438 13.8496C30.5908 13.6205 30.0969 13.4837 29.5907 13.4472C29.0845 13.4107 28.5761 13.4751 28.095 13.6368C27.6114 13.7941 27.1649 14.0484 26.7826 14.384C26.4002 14.7197 26.09 15.1297 25.8709 15.5892L10.4269 46.7401C10.1982 47.1938 10.0617 47.6885 10.0252 48.1955C9.98875 48.7026 10.0531 49.2118 10.2145 49.6937C10.3716 50.178 10.6254 50.6253 10.9605 51.0082C11.2956 51.3912 11.705 51.7019 12.1637 51.9214L19.5483 55.601L22.5222 52.9852C22.6459 50.9831 23.1646 49.0254 24.0482 47.2252C24.9318 45.425 26.1628 43.8181 27.6701 42.4973L43.6264 28.5176C44.0388 28.1528 44.5195 27.8739 45.0406 27.697C45.5617 27.5201 46.1127 27.4488 46.6616 27.4872C47.2104 27.5257 47.7461 27.6731 48.2376 27.9209C48.729 28.1687 49.1663 28.5119 49.5241 28.9306C49.9092 29.3593 50.195 29.8678 50.3612 30.42L50.7236 30.1071C51.5684 29.4011 52.652 29.0477 53.7499 29.1199C54.8477 29.1921 55.8758 29.6845 56.6213 30.4951C57.0015 30.9319 57.2867 31.4434 57.4584 31.9969C58.3104 31.3343 59.3805 31.0178 60.4551 31.1106C61.5298 31.2034 62.53 31.6986 63.2562 32.4975C63.9822 33.3362 64.3465 34.4291 64.2692 35.5365C64.1919 36.6439 63.6793 37.6754 62.8438 38.4048L60.9696 40.0568C61.5727 40.3188 62.101 40.7275 62.5065 41.2458C63.1815 42.0876 63.5052 43.1584 63.4097 44.2339C63.3142 45.3094 62.807 46.3061 61.9942 47.0154L47.0625 60.094L51.9731 59.5058C53.0764 59.3975 54.1775 59.732 55.0348 60.4359C55.8922 61.1398 56.4358 62.1556 56.5463 63.2604C56.6508 64.3621 56.3148 65.4603 55.6122 66.3143C54.9095 67.1683 53.8974 67.7083 52.7978 67.816L45.6881 68.5919Z" fill="#006B5F"/>
<path d="M48.7619 12.2977C48.5974 12.2986 48.4344 12.267 48.2822 12.2048C48.1299 12.1425 47.9915 12.0507 47.8747 11.9347C47.642 11.7002 47.5114 11.383 47.5114 11.0524C47.5114 10.7217 47.642 10.4045 47.8747 10.17C48.3107 9.73515 48.6566 9.21829 48.8927 8.64915C49.1287 8.08 49.2503 7.46976 49.2503 6.85346C49.2503 6.23716 49.1287 5.62692 48.8927 5.05778C48.6566 4.48863 48.3107 3.97178 47.8747 3.53688C47.7576 3.42053 47.6647 3.28211 47.6012 3.1296C47.5378 2.97709 47.5051 2.8135 47.5051 2.64828C47.5051 2.48307 47.5378 2.31948 47.6012 2.16697C47.6647 2.01446 47.7576 1.87604 47.8747 1.75969C48.1088 1.52659 48.4255 1.39575 48.7556 1.39575C49.0857 1.39575 49.4024 1.52659 49.6365 1.75969C50.531 2.61285 51.7188 3.08871 52.954 3.08871C54.1891 3.08871 55.377 2.61285 56.2714 1.75969C56.5055 1.52659 56.8222 1.39575 57.1523 1.39575C57.4824 1.39575 57.7991 1.52659 58.0332 1.75969C58.1513 1.8756 58.2452 2.01383 58.3096 2.16636C58.3739 2.31889 58.4074 2.4827 58.4081 2.64828C58.4067 2.97661 58.2766 3.29125 58.0457 3.52436C57.6075 3.96055 57.2597 4.47924 57.0224 5.05059C56.785 5.62193 56.6629 6.23464 56.6629 6.85346C56.6629 7.47228 56.785 8.08499 57.0224 8.65634C57.2597 9.22768 57.6075 9.74637 58.0457 10.1826C58.2785 10.4171 58.4091 10.7343 58.4091 11.0649C58.4091 11.3955 58.2785 11.7127 58.0457 11.9472C57.8116 12.1803 57.4949 12.3112 57.1648 12.3112C56.8347 12.3112 56.518 12.1803 56.2839 11.9472C55.3901 11.0977 54.2049 10.6242 52.9727 10.6242C51.7406 10.6242 50.5554 11.0977 49.6615 11.9472C49.5423 12.0625 49.4013 12.1528 49.2469 12.213C49.0924 12.2731 48.9275 12.3019 48.7619 12.2977ZM52.9602 8.05494C53.4089 8.05194 53.8568 8.09387 54.2972 8.18009C54.2179 7.73804 54.1761 7.29006 54.1723 6.84095C54.1761 6.39183 54.2179 5.94385 54.2972 5.5018C53.4175 5.66436 52.5155 5.66436 51.6358 5.5018C51.7212 5.94721 51.7631 6.39991 51.7607 6.85346C51.7631 7.29873 51.7213 7.74313 51.6358 8.18009C52.072 8.09445 52.5157 8.05253 52.9602 8.05494Z" fill="#006B5F"/>
<path d="M16.4621 13.7119C16.2968 13.7112 16.1333 13.6777 15.981 13.6132C15.8287 13.5488 15.6907 13.4547 15.575 13.3364C14.6797 12.4898 13.495 12.0181 12.2638 12.0181C11.0325 12.0181 9.84783 12.4898 8.95256 13.3364C8.71728 13.5721 8.39816 13.7045 8.06541 13.7045C7.73267 13.7045 7.41355 13.5721 7.17826 13.3364C6.94297 13.1008 6.81079 12.7811 6.81079 12.4478C6.81079 12.1146 6.94297 11.7949 7.17826 11.5593C8.05115 10.6819 8.54129 9.4938 8.54129 8.25519C8.54129 7.01658 8.05115 5.82846 7.17826 4.95112C6.94742 4.71801 6.81728 4.40337 6.8159 4.07504C6.81495 3.91033 6.84647 3.74705 6.90865 3.59457C6.97083 3.44208 7.06245 3.30339 7.17826 3.18645C7.29442 3.06914 7.43262 2.97604 7.58488 2.9125C7.73714 2.84896 7.90046 2.81625 8.06541 2.81625C8.23036 2.81625 8.39368 2.84896 8.54594 2.9125C8.69821 2.97604 8.83641 3.06914 8.95256 3.18645C9.84495 4.03878 11.0307 4.51428 12.2638 4.51428C13.4968 4.51428 14.6826 4.03878 15.575 3.18645C15.7497 3.00995 15.973 2.88957 16.2164 2.84067C16.4597 2.79178 16.7121 2.81657 16.9413 2.9119C17.1705 3.00722 17.3662 3.16876 17.5034 3.37592C17.6406 3.58307 17.7131 3.82646 17.7116 4.07504C17.7102 4.40337 17.5801 4.71801 17.3493 4.95112C16.4703 5.83538 15.9768 7.03239 15.9768 8.28022C15.9768 9.52804 16.4703 10.7251 17.3493 11.6093C17.5801 11.8424 17.7102 12.1571 17.7116 12.4854C17.7116 12.8173 17.58 13.1357 17.3456 13.3704C17.1113 13.6051 16.7935 13.7369 16.4621 13.7369V13.7119ZM12.2638 9.44415C12.7124 9.44173 13.1603 9.48365 13.6007 9.56931C13.434 8.68435 13.434 7.77597 13.6007 6.89101C12.721 7.05358 11.819 7.05358 10.9393 6.89101C11.0192 7.33719 11.061 7.78938 11.0642 8.24267C11.0604 8.68764 11.0186 9.13147 10.9393 9.56931C11.3755 9.48366 11.8192 9.44174 12.2638 9.44415Z" fill="#006B5F"/>
<path d="M9.67729 33.0858C9.51075 33.0884 9.34537 33.0576 9.19087 32.9953C9.03638 32.9329 8.89588 32.8403 8.77764 32.7228C7.88381 31.8733 6.69861 31.3997 5.46644 31.3997C4.23427 31.3997 3.04908 31.8733 2.15524 32.7228C2.03874 32.8395 1.90043 32.9321 1.74822 32.9952C1.596 33.0584 1.43285 33.0909 1.26809 33.0909C1.10333 33.0909 0.940188 33.0584 0.78797 32.9952C0.635753 32.9321 0.497444 32.8395 0.380942 32.7228C0.264439 32.6061 0.172025 32.4676 0.108974 32.3151C0.0459233 32.1627 0.0134716 31.9992 0.0134716 31.8342C0.0134716 31.6692 0.0459233 31.5058 0.108974 31.3533C0.172025 31.2008 0.264439 31.0623 0.380942 30.9456C0.816345 30.5129 1.16195 29.9982 1.39785 29.4312C1.63375 28.8641 1.75526 28.2559 1.7554 27.6415C1.75835 27.0219 1.63711 26.408 1.39887 25.8362C1.16064 25.2643 0.810242 24.7462 0.368447 24.3125C0.251944 24.1958 0.15953 24.0572 0.0964789 23.9048C0.0334282 23.7523 0.000976562 23.5889 0.000976563 23.4239C0.000976562 23.2588 0.0334282 23.0954 0.0964789 22.943C0.15953 22.7905 0.251944 22.652 0.368447 22.5353C0.603734 22.2996 0.922852 22.1672 1.2556 22.1672C1.42036 22.1672 1.5835 22.1997 1.73572 22.2629C1.88794 22.326 2.02625 22.4186 2.14275 22.5353C3.03367 23.3905 4.21996 23.8679 5.45395 23.8679C6.68793 23.8679 7.87422 23.3905 8.76515 22.5353C8.93992 22.3588 9.1632 22.2384 9.40654 22.1895C9.64988 22.1406 9.90225 22.1654 10.1315 22.2607C10.3607 22.356 10.5564 22.5176 10.6936 22.7247C10.8308 22.9319 10.9033 23.1753 10.9018 23.4239C10.9004 23.7522 10.7703 24.0668 10.5394 24.2999C9.66045 25.1842 9.16696 26.3812 9.16696 27.629C9.16696 28.8769 9.66045 30.0739 10.5394 30.9581C10.7703 31.1912 10.9004 31.5059 10.9018 31.8342C10.9028 31.9989 10.8712 32.1622 10.8091 32.3147C10.7469 32.4672 10.6553 32.6059 10.5394 32.7228C10.3098 32.951 10.0007 33.0811 9.67729 33.0858ZM5.47894 28.843C5.92765 28.84 6.37553 28.882 6.81591 28.9682C6.64918 28.0832 6.64918 27.1748 6.81591 26.2899C5.93618 26.4525 5.03419 26.4525 4.15446 26.2899C4.23434 26.7361 4.27614 27.1883 4.27941 27.6415C4.27557 28.0865 4.23377 28.5303 4.15446 28.9682C4.59071 28.8825 5.03439 28.8406 5.47894 28.843Z" fill="#006B5F"/>
<path d="M24.1966 78.6043C23.9429 78.6039 23.6954 78.5262 23.4869 78.3816C23.2784 78.2369 23.1187 78.0321 23.0292 77.7944C22.9397 77.5567 22.9246 77.2973 22.9858 77.0507C23.047 76.8042 23.1817 76.5821 23.3719 76.4141L33.8428 67.2153C34.0915 66.9965 34.4166 66.8855 34.7469 66.9066C35.0772 66.9277 35.3857 67.0792 35.6046 67.3279C35.823 67.577 35.9338 67.9027 35.9128 68.2335C35.8917 68.5644 35.7404 68.8733 35.4921 69.0926L25.0212 78.2914C24.7935 78.4926 24.5003 78.6038 24.1966 78.6043Z" fill="#006B5F"/>
<path d="M12.2638 64.9124C12.0073 64.915 11.7562 64.8385 11.5446 64.6932C11.333 64.5479 11.1712 64.341 11.0811 64.1004C10.9911 63.8598 10.9771 63.5973 11.0411 63.3485C11.1052 63.0997 11.2441 62.8767 11.4391 62.7097L22.9346 52.6974C23.0544 52.5713 23.1991 52.4716 23.3596 52.4048C23.52 52.3379 23.6927 52.3053 23.8664 52.309C24.0401 52.3127 24.2112 52.3527 24.3686 52.4264C24.5261 52.5001 24.6665 52.6059 24.7808 52.737C24.8951 52.8681 24.9808 53.0217 25.0325 53.1878C25.0843 53.354 25.1008 53.5292 25.0811 53.7021C25.0614 53.8751 25.0059 54.042 24.9181 54.1923C24.8304 54.3425 24.7123 54.4728 24.5714 54.5747L13.0884 64.6621C12.8519 64.8409 12.5596 64.9296 12.2638 64.9124Z" fill="#006B5F"/>
<path d="M24.4964 60.0189C24.211 60.0272 23.9313 59.9374 23.704 59.7643C23.4766 59.5913 23.3153 59.3454 23.2469 59.0677L22.9221 57.7536C22.2279 55.0196 22.3041 52.1462 23.1423 49.453C23.9805 46.7597 25.5479 44.352 27.6702 42.4973L43.6264 28.5176C44.0388 28.1529 44.5196 27.8739 45.0407 27.697C45.5617 27.5201 46.1127 27.4488 46.6616 27.4872C47.2104 27.5257 47.7462 27.6731 48.2376 27.9209C48.7291 28.1687 49.1664 28.5119 49.5241 28.9306C49.8867 29.3445 50.1639 29.8262 50.3395 30.3479C50.5152 30.8697 50.5859 31.4211 50.5475 31.9704C50.5092 32.5197 50.3626 33.0559 50.1161 33.5481C49.8697 34.0402 49.5283 34.4786 49.1118 34.8379C48.993 34.9723 48.8468 35.0795 48.6831 35.1524C48.5193 35.2252 48.3419 35.2619 48.1627 35.26C47.9836 35.2581 47.8069 35.2176 47.6448 35.1413C47.4826 35.065 47.3387 34.9547 47.2229 34.8178C47.107 34.6809 47.0219 34.5207 46.9733 34.3479C46.9248 34.1752 46.9138 33.994 46.9413 33.8167C46.9687 33.6394 47.0339 33.47 47.1325 33.3202C47.231 33.1703 47.3606 33.0434 47.5124 32.9481C47.6801 32.8016 47.8172 32.6234 47.9159 32.4236C48.0145 32.2239 48.0727 32.0065 48.0872 31.7841C48.111 31.5582 48.0865 31.3297 48.0154 31.1139C47.9443 30.8982 47.8282 30.7 47.6748 30.5326C47.3813 30.2014 46.9705 29.9979 46.5295 29.9651C46.0886 29.9324 45.6523 30.0731 45.3133 30.3574L29.3195 44.4247C28.0149 45.5809 26.9604 46.9924 26.2212 48.5723C25.482 50.1522 25.0736 51.867 25.0212 53.611C24.9961 54.787 25.1263 55.9611 25.4086 57.1028L25.7334 58.3544C25.8127 58.6763 25.7612 59.0166 25.5902 59.3006C25.4191 59.5845 25.1426 59.7888 24.8213 59.8687C24.7208 59.9341 24.6114 59.9847 24.4964 60.0189Z" fill="#006B5F"/>
<path d="M33.7679 47.8789C33.5904 47.8787 33.4151 47.8406 33.2535 47.7673C33.0919 47.6939 32.9478 47.5869 32.8307 47.4534C32.6123 47.2043 32.5015 46.8786 32.5226 46.5478C32.5436 46.2169 32.6949 45.908 32.9432 45.6887L50.7237 30.1071C51.5686 29.4011 52.6521 29.0477 53.75 29.1199C54.8479 29.1921 55.876 29.6845 56.6214 30.495C57.3351 31.3261 57.6966 32.4033 57.6289 33.4974C57.5612 34.5915 57.0697 35.6158 56.259 36.3522C56.0154 36.578 55.6923 36.6975 55.3608 36.6846C55.0292 36.6717 54.7163 36.5274 54.491 36.2834C54.2656 36.0394 54.1463 35.7158 54.1591 35.3837C54.172 35.0516 54.3161 34.7382 54.5597 34.5125C54.8886 34.2129 55.0872 33.7961 55.1129 33.3516C55.1386 32.9071 54.9893 32.4702 54.6971 32.1346C54.3947 31.8108 53.9795 31.6159 53.5376 31.5902C53.0956 31.5646 52.6608 31.7102 52.3231 31.9969L34.6425 47.566C34.4019 47.779 34.0887 47.8911 33.7679 47.8789Z" fill="#006B5F"/>
<path d="M40.915 49.4559C40.6613 49.4556 40.4138 49.3779 40.2053 49.2332C39.9967 49.0885 39.8371 48.8837 39.7476 48.646C39.6581 48.4083 39.643 48.1489 39.7042 47.9024C39.7654 47.6558 39.9 47.4338 40.0903 47.2657L57.346 32.097C58.1916 31.3874 59.2779 31.0317 60.3788 31.1039C61.4796 31.1762 62.5102 31.6709 63.2562 32.485C63.9822 33.3237 64.3465 34.4166 64.2692 35.524C64.1919 36.6314 63.6793 37.6629 62.8438 38.3923L58.0207 42.6225C57.77 42.8248 57.451 42.9223 57.1302 42.8948C56.8094 42.8672 56.5116 42.7167 56.2989 42.4746C56.0862 42.2325 55.975 41.9175 55.9885 41.5953C56.002 41.2731 56.1392 40.9686 56.3714 40.7452L61.257 36.515C61.5909 36.226 61.7975 35.8167 61.8317 35.3761C61.8495 35.1505 61.8222 34.9236 61.7514 34.7087C61.6806 34.4938 61.5677 34.2952 61.4194 34.1245C61.1182 33.7963 60.7026 33.5963 60.2585 33.5661C59.8144 33.5358 59.3757 33.6775 59.0328 33.9618L41.7396 49.1555C41.51 49.3522 41.2171 49.4589 40.915 49.4559Z" fill="#006B5F"/>
<path d="M36.0169 69.5306C35.4803 69.5303 34.9448 69.48 34.4175 69.3804C32.6125 69.026 30.9769 68.0792 29.7693 66.6896C29.549 66.439 29.437 66.111 29.4581 65.7777C29.4792 65.4444 29.6316 65.1331 29.8818 64.9124C30.132 64.6917 30.4595 64.5795 30.7922 64.6007C31.125 64.6218 31.4357 64.7744 31.6561 65.025C32.4939 65.9946 33.6344 66.6518 34.8923 66.8898C35.4391 66.9996 35.9989 67.0292 36.5542 66.9775L52.5104 65.363C52.8692 65.3354 53.2102 65.1953 53.485 64.9625C53.6831 64.7822 53.8369 64.5585 53.9345 64.3088C54.032 64.0591 54.0706 63.7903 54.0473 63.5232C54.0117 63.0766 53.8004 62.6624 53.46 62.3718C53.2874 62.2286 53.0879 62.1216 52.8733 62.0571C52.6586 61.9927 52.4333 61.972 52.2105 61.9963L43.339 63.0601C43.0724 63.0946 42.8018 63.042 42.5673 62.9102C42.3329 62.7784 42.1472 62.5743 42.0378 62.3284C41.9283 62.0824 41.901 61.8077 41.9598 61.545C42.0187 61.2822 42.1605 61.0455 42.3644 60.8699L60.3073 45.1005C60.478 44.9594 60.6173 44.784 60.7163 44.5857C60.8153 44.3874 60.8718 44.1706 60.8821 43.9491C60.9126 43.5292 60.7831 43.1133 60.5197 42.7852C60.3826 42.6192 60.2134 42.4827 60.0223 42.3838C59.8312 42.2849 59.6222 42.2256 59.4077 42.2095C59.153 42.1825 58.8956 42.2074 58.6508 42.2827C58.406 42.358 58.1789 42.4821 57.9832 42.6475L43.6389 55.2881C43.5172 55.4051 43.3732 55.4962 43.2154 55.556C43.0577 55.6158 42.8894 55.643 42.7209 55.6359C42.5524 55.6288 42.387 55.5876 42.2348 55.5148C42.0826 55.442 41.9467 55.3391 41.8353 55.2122C41.7239 55.0854 41.6392 54.9373 41.5865 54.7768C41.5337 54.6164 41.514 54.4468 41.5284 54.2785C41.5428 54.1102 41.5911 53.9465 41.6703 53.7974C41.7496 53.6482 41.8582 53.5167 41.9895 53.4108L56.3464 40.7827C56.7995 40.393 57.3259 40.098 57.8946 39.9153C58.4632 39.7326 59.0627 39.6658 59.6576 39.7189C60.2113 39.7653 60.7497 39.9247 61.2396 40.1873C61.7296 40.4499 62.1607 40.8101 62.5065 41.2458C63.1815 42.0876 63.5052 43.1584 63.4097 44.2339C63.3142 45.3094 62.807 46.3061 61.9942 47.0154L47.0625 60.094L51.9731 59.5058C53.0764 59.3975 54.1775 59.732 55.0348 60.4359C55.8922 61.1397 56.4358 62.1555 56.5463 63.2604C56.6508 64.3621 56.3149 65.4603 55.6122 66.3143C54.9095 67.1683 53.8974 67.7083 52.7978 67.816L36.7916 69.493C36.5417 69.5181 36.2668 69.5306 36.0169 69.5306Z" fill="#006B5F"/>
</g>
<defs>
<clipPath id="clip0_225_7647">
<rect width="80" height="80" fill="white" transform="translate(0.000976562)"/>
</clipPath>
</defs>
</svg>
