<svg width="79" height="77" viewBox="0 0 79 77" fill="none" xmlns="http://www.w3.org/2000/svg">
<g clip-path="url(#clip0_225_7398)">
<path d="M74.0278 62.3199C74.5676 61.3211 74.8746 60.1871 74.8746 58.9842V56.1143C74.8746 52.9928 72.8175 50.3273 69.945 49.3168C69.3664 46.2381 67.5297 43.5452 64.8398 41.8071C65.3791 40.8086 65.686 39.6748 65.686 38.4726V35.6027C65.686 31.6155 62.33 28.3717 58.2051 28.3717C54.0801 28.3717 50.7242 31.6155 50.7242 35.6027V38.4726C50.7242 39.675 51.0311 40.8087 51.5705 41.8074C50.6003 42.4345 49.7415 43.1868 49.0118 44.0361C48.2776 43.1792 47.4199 42.4311 46.4616 41.8098C47.0018 40.8105 47.3091 39.676 47.3091 38.4726V35.6027C47.3091 31.6155 43.9532 28.3717 39.8282 28.3717C35.7033 28.3717 32.3473 31.6155 32.3473 35.6027V38.4726C32.3473 39.676 32.6547 40.8107 33.195 41.8098C32.2313 42.4345 31.3695 43.1881 30.6325 44.0513C29.9016 43.1959 29.0449 42.4376 28.0843 41.8106C28.6248 40.8113 28.9324 39.6763 28.9324 38.4726V35.6027C28.9324 31.6155 25.5765 28.3717 21.4514 28.3717C17.3264 28.3717 13.9705 31.6155 13.9705 35.6027V38.4726C13.9705 39.675 14.2774 40.8087 14.8168 41.8074C12.1291 43.5447 10.2905 46.2382 9.71144 49.3169C6.8389 50.3273 4.78198 52.9928 4.78198 56.1143V58.9842C4.78198 60.1869 5.08903 61.3211 5.62876 62.3199C2.3262 64.4523 0.328369 68.0028 0.328369 71.8984V75.5088C0.328369 76.3325 1.01915 77.0002 1.87133 77.0002H20.2483H38.6253H59.4084H77.7854C78.6375 77.0002 79.3284 76.3325 79.3284 75.5088V71.8984C79.3282 68.0028 77.3306 64.4522 74.0278 62.3199V62.3199ZM71.7889 56.1143V58.9842C71.7889 61.3266 69.8173 63.2324 67.3939 63.2324C64.9705 63.2324 62.9989 61.3266 62.9989 58.9842V56.1143C62.9989 53.7718 64.9705 51.8662 67.3939 51.8662C69.8173 51.8662 71.7889 53.7719 71.7889 56.1143ZM66.6716 48.9177C62.8843 49.2701 59.9128 52.3627 59.9128 56.1143V58.9842C59.9128 60.1877 60.2203 61.3225 60.7607 62.3217C59.8042 62.9421 58.9477 63.6905 58.2136 64.5466C57.4848 63.699 56.624 62.9484 55.6508 62.3199C56.1906 61.3211 56.4976 60.1869 56.4976 58.9842V56.1143C56.4976 52.3628 53.5263 49.2702 49.7391 48.9177C50.3645 46.9527 51.7254 45.229 53.5483 44.1256C54.8272 45.1119 56.4455 45.7035 58.2051 45.7035C59.9645 45.7035 61.5828 45.1119 62.8617 44.1256C64.686 45.2294 66.0463 46.9524 66.6716 48.9177V48.9177ZM44.6216 58.9842V56.1143C44.6216 53.7719 46.5932 51.8662 49.0166 51.8662C51.44 51.8662 53.4115 53.7719 53.4115 56.1143V58.9842C53.4115 61.3266 51.44 63.2324 49.0166 63.2324C46.5932 63.2324 44.6216 61.3266 44.6216 58.9842ZM53.8101 35.6027C53.8101 33.2601 55.7817 31.3545 58.2051 31.3545C60.6284 31.3545 62.6 33.2602 62.6 35.6027V38.4726C62.6 40.815 60.6284 42.7207 58.2051 42.7207C55.7817 42.7207 53.8101 40.815 53.8101 38.4726V35.6027ZM35.4331 35.6027C35.4331 33.2601 37.4047 31.3545 39.8281 31.3545C42.2514 31.3545 44.223 33.2602 44.223 35.6027V38.4726C44.223 40.815 42.2514 42.7207 39.8281 42.7207C37.4045 42.7207 35.4329 40.815 35.4329 38.4726V35.6027H35.4331ZM35.1716 44.1256C36.4505 45.1119 38.0688 45.7035 39.8282 45.7035C41.5877 45.7035 43.2059 45.1119 44.4847 44.1258C45.6035 44.7988 46.5498 45.6989 47.2664 46.7732C46.9019 47.5803 46.6315 48.4327 46.4651 49.3169C43.5926 50.3273 41.5357 52.9929 41.5357 56.1143V58.9842C41.5357 60.1869 41.8427 61.321 42.3824 62.3198C41.4096 62.9478 40.5491 63.698 39.8207 64.5448C39.087 63.689 38.2303 62.942 37.2731 62.3214C37.8134 61.3222 38.1208 60.1875 38.1208 58.9841V56.1143C38.1208 52.9921 36.0628 50.3262 33.1893 49.3162C33.0219 48.4425 32.7488 47.5942 32.3806 46.7876C33.0983 45.7068 34.0481 44.8015 35.1716 44.1256V44.1256ZM26.2446 58.9842V56.1143C26.2446 53.7718 28.2162 51.8662 30.6397 51.8662C33.0633 51.8662 35.0349 53.7719 35.0349 56.1143V58.9842C35.0349 61.3266 33.0633 63.2324 30.6397 63.2324C28.2162 63.2324 26.2446 61.3266 26.2446 58.9842V58.9842ZM17.0561 35.6027C17.0561 33.2601 19.0277 31.3545 21.4511 31.3545C23.8746 31.3545 25.8462 33.2602 25.8462 35.6027V38.4726C25.8462 40.815 23.8746 42.7207 21.4512 42.7207C19.0277 42.7207 17.0561 40.815 17.0561 38.4726V35.6027ZM16.7944 44.1256C18.0734 45.1119 19.6916 45.7035 21.4512 45.7035C23.2107 45.7035 24.8291 45.1119 26.1079 44.1256C27.9324 45.2294 29.2923 46.9523 29.9175 48.9177C26.1301 49.2701 23.1587 52.3627 23.1587 56.1143V58.9842C23.1587 60.1869 23.4657 61.3211 24.0054 62.3199C23.0329 62.9478 22.1727 63.6977 21.4443 64.5442C20.7108 63.6884 19.8536 62.942 18.8961 62.3214C19.4363 61.3222 19.7436 60.1877 19.7436 58.9842V56.1143C19.7436 52.3628 16.7723 49.2702 12.9851 48.9177C13.6108 46.9527 14.9716 45.229 16.7944 44.1256ZM7.86775 56.1143C7.86775 53.7718 9.83935 51.8662 12.2629 51.8662C14.6863 51.8662 16.6579 53.7719 16.6579 56.1143V58.9842C16.6579 61.3266 14.6863 63.2324 12.2629 63.2324C9.83935 63.2324 7.86775 61.3266 7.86775 58.9842V56.1143ZM3.41414 71.8984C3.41414 68.9124 5.00092 66.1983 7.60529 64.6368C8.88425 65.6234 10.503 66.2153 12.2627 66.2153C14.0222 66.2153 15.6404 65.6237 16.9194 64.6374C18.0373 65.3099 18.9825 66.208 19.6984 67.2809C19.0536 68.7084 18.7052 70.2732 18.7052 71.8984V74.0174H3.41414V71.8984ZM21.7911 71.8984C21.7911 68.9124 23.3778 66.1983 25.9821 64.6368C27.2611 65.6234 28.8798 66.2153 30.6396 66.2153C32.399 66.2153 34.0173 65.6237 35.2962 64.6376C36.4135 65.3098 37.3589 66.2085 38.0751 67.2815C37.4305 68.7088 37.0821 70.2735 37.0821 71.8985V74.0175H21.791V71.8984H21.7911ZM40.1681 71.8984C40.1681 68.9124 41.7548 66.1983 44.3591 64.6368C45.6381 65.6234 47.2568 66.2153 49.0166 66.2153C50.7763 66.2153 52.395 65.6235 53.674 64.6368C56.2782 66.1985 57.8653 68.9134 57.8653 71.8984V74.0174H40.1681V71.8984ZM76.2423 74.0172H60.9512V71.8982C60.9512 70.2738 60.6028 68.7091 59.958 67.2817C60.6746 66.2088 61.621 65.3092 62.7371 64.6373C64.0159 65.6235 65.6341 66.215 67.3936 66.215C69.1533 66.215 70.772 65.6232 72.051 64.6365C74.6555 66.198 76.2422 68.9121 76.2422 71.8981V74.0172H76.2423Z" fill="black"/>
<path d="M27.3678 12.6786C28.1692 12.3988 28.5844 11.544 28.2949 10.7693C27.3247 8.17247 27.6751 6.1179 29.3663 4.48839C31.4526 2.47812 34.8474 2.47812 36.9338 4.48839C38.5567 6.05198 41.0994 6.05213 42.7222 4.48839C44.8088 2.47812 48.2035 2.47812 50.2899 4.48839C51.8044 5.94773 52.2409 7.74085 51.6239 9.97006C50.0778 15.5561 42.9068 21.2605 39.8293 22.3855C38.9488 22.0609 37.7204 21.3516 36.4385 20.4201C35.7573 19.9249 34.7899 20.0575 34.2781 20.716C33.766 21.3744 33.903 22.3094 34.5842 22.8042C36.4259 24.1425 38.1467 25.0619 39.43 25.3932C39.5604 25.4269 39.6943 25.4437 39.8283 25.4437C39.9622 25.4437 40.096 25.4269 40.2265 25.3932C42.2802 24.863 45.4067 22.8312 48.1919 20.2169C50.1045 18.4217 53.4809 14.8036 54.6052 10.7408C55.5068 7.48359 54.768 4.591 52.4685 2.37581C49.1809 -0.792098 43.8313 -0.792098 40.5439 2.37581C40.074 2.8283 39.4681 2.71838 39.1126 2.37581C35.8247 -0.791949 30.4754 -0.791651 27.1878 2.37581C24.6336 4.83678 24.0127 8.08955 25.3924 11.7823C25.6819 12.5571 26.5662 12.958 27.3678 12.6786V12.6786Z" fill="black"/>
<path d="M30.4647 15.5116C29.6125 15.5116 28.9224 16.1793 28.9224 17.003C28.9224 17.8267 29.6136 18.4944 30.4658 18.4944C31.318 18.4944 32.0088 17.8267 32.0088 17.003C32.0088 16.1793 31.318 15.5116 30.4658 15.5116H30.4647Z" fill="black"/>
</g>
<defs>
<clipPath id="clip0_225_7398">
<rect width="79" height="77" fill="white"/>
</clipPath>
</defs>
</svg>
