<svg width="79" height="78" viewBox="0 0 79 78" fill="none" xmlns="http://www.w3.org/2000/svg">
<path d="M71.5938 46.3125V42.6562C71.5921 41.0406 70.9413 39.4915 69.7842 38.3491C68.6271 37.2066 67.0583 36.5641 65.4219 36.5625H44.4375C43.4788 36.5624 42.5334 36.7831 41.6763 37.207C40.8191 37.631 40.074 38.2464 39.5 39.0046C38.926 38.2464 38.1809 37.631 37.3237 37.207C36.4666 36.7831 35.5212 36.5624 34.5625 36.5625H13.5781C11.9417 36.5641 10.3729 37.2066 9.21575 38.3491C8.05866 39.4915 7.40788 41.0406 7.40625 42.6562V46.3125C5.76987 46.3141 4.20098 46.9566 3.04388 48.0991C1.88678 49.2415 1.23601 50.7906 1.23438 52.4062V74.3438C1.23438 74.667 1.36442 74.977 1.59592 75.2055C1.82741 75.4341 2.14137 75.5625 2.46875 75.5625H76.5312C76.8586 75.5625 77.1726 75.4341 77.4041 75.2055C77.6356 74.977 77.7656 74.667 77.7656 74.3438V52.4062C77.764 50.7906 77.1132 49.2415 75.9561 48.0991C74.799 46.9566 73.2301 46.3141 71.5938 46.3125ZM13.5781 73.125H3.70312V52.4062C3.70443 51.4369 4.095 50.5077 4.78919 49.8223C5.48338 49.1369 6.42452 48.7513 7.40625 48.75H9.875C10.8567 48.7513 11.7979 49.1369 12.4921 49.8223C13.1862 50.5077 13.5768 51.4369 13.5781 52.4062V73.125ZM9.875 46.3125V42.6562C9.87631 41.6869 10.2669 40.7577 10.9611 40.0723C11.6553 39.3869 12.5964 39.0013 13.5781 39H34.5625C35.5442 39.0013 36.4854 39.3869 37.1796 40.0723C37.8737 40.7577 38.2643 41.6869 38.2656 42.6562V57.2843C37.1987 56.4902 35.8986 56.0613 34.5625 56.0625H19.75C18.4139 56.0613 17.1138 56.4902 16.0469 57.2843V52.4062C16.0452 50.7906 15.3945 49.2415 14.2374 48.0991C13.0803 46.9566 11.5114 46.3141 9.875 46.3125V46.3125ZM38.2656 62.1562V65.8125H16.0469V62.1562C16.0482 61.1869 16.4388 60.2577 17.1329 59.5723C17.8271 58.8869 18.7683 58.5013 19.75 58.5H34.5625C35.5442 58.5013 36.4854 58.8869 37.1796 59.5723C37.8737 60.2577 38.2643 61.1869 38.2656 62.1562V62.1562ZM62.9531 73.125H16.0469V68.25H62.9531V73.125ZM62.9531 65.8125H40.7344V62.1562C40.7357 61.1869 41.1263 60.2577 41.8204 59.5723C42.5146 58.8869 43.4558 58.5013 44.4375 58.5H59.25C60.2317 58.5013 61.1729 58.8869 61.8671 59.5723C62.5612 60.2577 62.9518 61.1869 62.9531 62.1562V65.8125ZM62.9531 52.4062V57.2843C61.8862 56.4902 60.5861 56.0613 59.25 56.0625H44.4375C43.1014 56.0613 41.8013 56.4902 40.7344 57.2843V42.6562C40.7357 41.6869 41.1263 40.7577 41.8204 40.0723C42.5146 39.3869 43.4558 39.0013 44.4375 39H65.4219C66.4036 39.0013 67.3447 39.3869 68.0389 40.0723C68.7331 40.7577 69.1237 41.6869 69.125 42.6562V46.3125C67.4886 46.3141 65.9197 46.9566 64.7626 48.0991C63.6055 49.2415 62.9548 50.7906 62.9531 52.4062V52.4062ZM75.2969 73.125H65.4219V52.4062C65.4232 51.4369 65.8138 50.5077 66.5079 49.8223C67.2021 49.1369 68.1433 48.7513 69.125 48.75H71.5938C72.5755 48.7513 73.5166 49.1369 74.2108 49.8223C74.905 50.5077 75.2956 51.4369 75.2969 52.4062V73.125Z" fill="#006B5F"/>
<path d="M58.0156 2.4375H20.9844C20.657 2.4375 20.343 2.5659 20.1115 2.79446C19.88 3.02302 19.75 3.33302 19.75 3.65625V30.4688C19.75 30.792 19.88 31.102 20.1115 31.3305C20.343 31.5591 20.657 31.6875 20.9844 31.6875H58.0156C58.343 31.6875 58.657 31.5591 58.8885 31.3305C59.12 31.102 59.25 30.792 59.25 30.4688V3.65625C59.25 3.33302 59.12 3.02302 58.8885 2.79446C58.657 2.5659 58.343 2.4375 58.0156 2.4375V2.4375ZM56.7812 29.25H22.2188V4.875H56.7812V29.25Z" fill="#006B5F"/>
<path d="M54.3125 6.09375H24.6875C24.3601 6.09375 24.0462 6.22215 23.8147 6.45071C23.5832 6.67927 23.4531 6.98927 23.4531 7.3125V26.8125C23.4531 27.1357 23.5832 27.4457 23.8147 27.6743C24.0462 27.9028 24.3601 28.0312 24.6875 28.0312H54.3125C54.6399 28.0312 54.9538 27.9028 55.1853 27.6743C55.4168 27.4457 55.5469 27.1357 55.5469 26.8125V7.3125C55.5469 6.98927 55.4168 6.67927 55.1853 6.45071C54.9538 6.22215 54.6399 6.09375 54.3125 6.09375ZM29.7916 25.5938L33.3281 21.4043L36.8646 25.5938H29.7916ZM40.0786 25.5938L37.5065 22.5469L42.535 16.5887L49.375 25.5938H40.0786ZM53.0781 25.5938H52.4609L43.5734 13.8937C43.4617 13.7465 43.3175 13.6262 43.1519 13.5417C42.9863 13.4573 42.8035 13.411 42.6172 13.4064C42.4309 13.4017 42.2459 13.4387 42.0761 13.5147C41.9064 13.5906 41.7563 13.7036 41.637 13.845L35.9003 20.6426L34.277 18.72C34.1611 18.5827 34.016 18.4722 33.852 18.3963C33.6881 18.3205 33.5092 18.2812 33.3281 18.2812C33.1471 18.2812 32.9682 18.3205 32.8042 18.3963C32.6402 18.4722 32.4951 18.5827 32.3792 18.72L26.5776 25.5938H25.9219V8.53125H53.0781V25.5938Z" fill="#006B5F"/>
<path d="M33.3281 17.0625C34.0605 17.0625 34.7765 16.8481 35.3855 16.4463C35.9944 16.0446 36.4691 15.4735 36.7494 14.8054C37.0296 14.1373 37.103 13.4022 36.9601 12.693C36.8172 11.9837 36.4645 11.3322 35.9466 10.8209C35.4287 10.3096 34.7689 9.96133 34.0506 9.82026C33.3322 9.67918 32.5877 9.75158 31.911 10.0283C31.2343 10.305 30.656 10.7737 30.2491 11.3749C29.8422 11.9762 29.625 12.6831 29.625 13.4063C29.6261 14.3756 30.0166 15.305 30.7108 15.9904C31.4051 16.6758 32.3463 17.0614 33.3281 17.0625V17.0625ZM33.3281 12.1875C33.5723 12.1875 33.8109 12.259 34.0139 12.3929C34.2169 12.5268 34.3751 12.7172 34.4685 12.9399C34.562 13.1626 34.5864 13.4076 34.5388 13.644C34.4912 13.8804 34.3736 14.0976 34.201 14.268C34.0283 14.4385 33.8084 14.5546 33.5689 14.6016C33.3295 14.6486 33.0813 14.6245 32.8558 14.5322C32.6302 14.44 32.4374 14.2838 32.3018 14.0834C32.1661 13.8829 32.0937 13.6473 32.0937 13.4063C32.0941 13.0831 32.2243 12.7733 32.4557 12.5449C32.6871 12.3164 33.0009 12.1879 33.3281 12.1875V12.1875Z" fill="#006B5F"/>
</svg>
