<svg width="79" height="76" viewBox="0 0 79 76" fill="none" xmlns="http://www.w3.org/2000/svg">
<g clip-path="url(#clip0_225_7289)">
<path d="M78.4489 27.3019L69.6229 5.22573C67.9504 1.05244 63.0778 -1.0263 58.7398 0.58266C58.6768 0.606069 58.614 0.630112 58.5516 0.654946L14.4452 18.244C10.2454 19.9014 8.18132 24.4747 9.79016 28.5583L11.0029 31.6725H8.22095C3.68282 31.6774 0.00509699 35.2154 0 39.5812V68.0527C0.00509699 72.4185 3.68282 75.9566 8.22095 75.9615H64.1234C68.6615 75.9566 72.3392 72.4185 72.3443 68.0527V39.5812C72.3417 39.1519 72.3021 38.7236 72.2259 38.3006L73.7531 37.7059C77.9903 36.0351 80.0728 31.4211 78.4489 27.3019ZM8.22095 34.2034H64.1234C67.0757 34.2115 69.5111 36.4296 69.6807 39.265H2.66359C2.83327 36.4294 5.26864 34.2113 8.22095 34.2034ZM21.4415 26.5806L30.2334 22.3504L32.0406 26.6996L23.2488 30.9286L21.4415 26.5806ZM69.7136 68.0529C69.71 71.0217 67.2094 73.4274 64.1234 73.4309H8.22095C5.13497 73.4274 2.63432 71.0217 2.6307 68.0529V51.919H69.7136V68.0529ZM69.7136 49.3882H2.6307V41.7958H69.7136V49.3882ZM72.7666 35.3676L71.392 35.9029C69.9723 33.305 67.1743 31.6767 64.1234 31.6726H27.5855L34.3004 28.442C34.9127 28.148 35.1884 27.4514 34.9344 26.8401L32.1446 20.1334C31.8747 19.4846 31.1094 19.1689 30.4349 19.4283C30.4009 19.4414 30.3675 19.4558 30.3348 19.4716L19.1819 24.8395C18.5701 25.134 18.2951 25.8304 18.5492 26.4415L20.7248 31.6726H13.8112L12.2538 27.6765C11.1497 24.8708 12.5679 21.7294 15.4527 20.5902L59.5578 3.00116C62.5063 1.82497 65.8878 3.17088 67.1105 6.00743C67.1296 6.05157 67.148 6.09601 67.1658 6.14062L75.9918 28.2168C77.1084 31.0474 75.6781 34.2184 72.7666 35.3676Z" fill="#006B5F"/>
<path d="M47.3159 69.8726C49.767 71.2425 52.7938 71.2425 55.245 69.8726C59.0138 71.979 63.8441 70.7473 66.0336 67.1216C68.2232 63.4959 66.9429 58.8491 63.1741 56.7426C61.9644 56.0666 60.5899 55.712 59.191 55.7151C57.8043 55.7158 56.4426 56.0702 55.245 56.7426C51.4762 54.6362 46.6459 55.8678 44.4563 59.4935C42.2667 63.1193 43.5471 67.766 47.3159 69.8726ZM57.4442 58.5548C58.0038 58.3565 58.5947 58.2521 59.191 58.2461C62.0968 58.2461 64.4524 60.5123 64.4524 63.3077C64.4524 66.1031 62.0968 68.3693 59.191 68.3693C58.5947 68.3633 58.0038 68.2589 57.4442 68.0605C59.7731 65.2879 59.7731 61.3273 57.4442 58.5548ZM55.245 59.9949C56.9988 61.8813 56.9988 64.7341 55.245 66.6205C53.4911 64.7341 53.4911 61.8811 55.245 59.9949ZM51.2989 58.2461C51.8953 58.2519 52.4862 58.3565 53.0457 58.5548C50.7169 61.3273 50.7169 65.288 53.0457 68.0605C52.4862 68.2589 51.8953 68.3633 51.2989 68.3693C48.3931 68.3693 46.0375 66.1031 46.0375 63.3077C46.0375 60.5121 48.3931 58.2461 51.2989 58.2461Z" fill="#006B5F"/>
<path d="M55.4846 26.1532L56.5532 28.4658L69.1018 23.0996L68.0332 20.7869L55.4846 26.1532Z" fill="#006B5F"/>
<path d="M65.2327 15.4297L47.1074 23.478L48.2094 25.7748L66.3347 17.7266L65.2327 15.4297Z" fill="#006B5F"/>
</g>
<defs>
<clipPath id="clip0_225_7289">
<rect width="79" height="76" fill="white"/>
</clipPath>
</defs>
</svg>
