<svg width="79" height="79" viewBox="0 0 79 79" fill="none" xmlns="http://www.w3.org/2000/svg">
<g clip-path="url(#clip0_225_7421)">
<path d="M16.1896 56.9603C16.4143 57.1778 16.7043 57.286 16.9943 57.286C17.2968 57.286 17.5989 57.1681 17.8259 56.9336L30.6188 43.7167C31.0634 43.2575 31.0515 42.5249 30.5921 42.0805C30.1328 41.6357 29.4 41.6479 28.956 42.1072L16.1631 55.3241C15.7185 55.7832 15.7304 56.5158 16.1896 56.9603V56.9603Z" fill="#006B5F"/>
<path d="M19.0976 46.9832C19.5583 47.1629 20.0393 47.2521 20.5236 47.2521C21.1972 47.2521 21.8782 47.0794 22.5219 46.7374C23.5706 46.18 24.3989 45.23 24.8539 44.0626C25.8178 41.5906 24.8038 38.8781 22.5933 38.0162C20.3833 37.1549 17.8006 38.4649 16.837 40.9369C16.3818 42.1044 16.3485 43.3643 16.7433 44.4845C17.1599 45.6664 17.996 46.5537 19.0976 46.9832V46.9832ZM18.9933 41.7778C19.4003 40.7341 20.2951 40.0632 21.1642 40.0632C21.3637 40.0632 21.562 40.0986 21.7526 40.1728C22.7739 40.571 23.1977 41.9389 22.6976 43.222C22.4437 43.8738 21.9953 44.3962 21.4356 44.6939C20.9336 44.9606 20.402 45.008 19.938 44.8269C19.4744 44.6462 19.1149 44.2515 18.9258 43.7153C18.7155 43.1174 18.7393 42.4292 18.9933 41.7778V41.7778Z" fill="#006B5F"/>
<path d="M27.338 52.3133C26.2362 51.8836 25.0202 51.971 23.9137 52.5591C22.865 53.1165 22.0368 54.0665 21.5817 55.2339C20.6178 57.7059 21.6318 60.4184 23.8421 61.2801C24.303 61.4599 24.7799 61.5451 25.255 61.5451C27.0587 61.5451 28.8358 60.3162 29.5985 58.3596C30.0537 57.192 30.087 55.9322 29.6921 54.812C29.2758 53.6301 28.4397 52.7427 27.338 52.3133V52.3133ZM27.4423 57.5187C26.9419 58.8018 25.7042 59.5218 24.6829 59.1237C23.6616 58.7254 23.2377 57.3576 23.7378 56.0745C23.9918 55.4227 24.4402 54.9001 24.9998 54.6026C25.3013 54.4425 25.6136 54.3615 25.9154 54.3615C26.1161 54.3615 26.3121 54.3973 26.4973 54.4695C26.9611 54.6503 27.3206 55.045 27.5094 55.5812C27.7202 56.1792 27.6963 56.8673 27.4423 57.5187Z" fill="#006B5F"/>
<path d="M58.8236 41.0183L55.8974 59.1782C55.7957 59.8092 56.2248 60.403 56.8557 60.5048C56.918 60.5148 56.9801 60.5198 57.0412 60.5198C57.5993 60.5198 58.0907 60.1152 58.1823 59.5465L61.1086 41.3866C61.2103 40.7556 60.7812 40.1618 60.1502 40.06C59.5184 39.9566 58.9251 40.3874 58.8236 41.0183Z" fill="#006B5F"/>
<path d="M56.5789 44.9694C56.284 43.7514 55.5903 42.6994 54.6255 42.0068C53.6077 41.2763 52.4142 41.027 51.265 41.3053C48.9594 41.8636 47.5914 44.4158 48.2158 46.9949C48.5107 48.2127 49.2044 49.2649 50.1692 49.9574C50.9155 50.4932 51.756 50.77 52.6043 50.77C52.9132 50.77 53.2232 50.7333 53.5298 50.659C54.679 50.3806 55.6264 49.6131 56.1973 48.4976C56.7383 47.4405 56.8739 46.1874 56.5789 44.9694ZM54.137 47.4433C53.8781 47.9492 53.469 48.2923 52.9851 48.4096C52.5017 48.5269 51.9805 48.4088 51.519 48.0773C51.004 47.7076 50.6298 47.1297 50.4652 46.4502C50.1411 45.1115 50.7443 43.8126 51.8097 43.5547C51.9316 43.5252 52.056 43.5105 52.1809 43.5105C52.5522 43.5105 52.9304 43.6391 53.2758 43.8869C53.7907 44.2566 54.1649 44.8344 54.3295 45.5142C54.494 46.1941 54.4257 46.879 54.137 47.4433V47.4433Z" fill="#006B5F"/>
<path d="M60.2888 56.0031C60.831 58.2423 62.6994 59.7764 64.6917 59.7763C64.994 59.7763 65.2993 59.7409 65.603 59.6673C67.9086 59.1089 69.2765 56.5566 68.6519 53.9778C68.0274 51.3992 65.6437 49.755 63.3379 50.3136C62.1887 50.5919 61.2413 51.3594 60.6704 52.4749C60.1295 53.532 59.9938 54.7851 60.2888 56.0031V56.0031ZM62.7307 53.5293C62.9897 53.0233 63.3987 52.6802 63.8824 52.5629C64.0077 52.5327 64.1338 52.518 64.2595 52.518C65.2024 52.518 66.1165 53.3415 66.4025 54.5226C66.7267 55.861 66.1236 57.1599 65.0583 57.418C63.9934 57.6746 62.8624 56.7971 62.5382 55.4583C62.3737 54.7786 62.4421 54.0935 62.7307 53.5293V53.5293Z" fill="#006B5F"/>
<path d="M78.8794 68.3316L68.0456 23.5938C67.7532 22.3872 66.9547 21.3657 65.8542 20.7911L63.5995 19.6137C63.0327 19.318 62.3341 19.5373 62.038 20.1039C61.7422 20.6705 61.9616 21.3694 62.5282 21.6654L64.7831 22.8428C65.2918 23.1085 65.661 23.5807 65.7962 24.1386L76.6301 68.8762C76.8883 69.943 76.2306 71.021 75.1639 71.2793L53.0722 76.6291C52.0046 76.8872 50.9276 76.2296 50.6692 75.1629L39.8389 30.4398C39.7024 29.876 39.8181 29.2824 40.1563 28.811L48.9639 16.5319C49.8409 18.2009 50.4657 20.1002 50.6158 22.2212L50.25 22.3097C49.6288 22.4602 49.247 23.0855 49.3976 23.7067C49.5259 24.2366 49.9994 24.5919 50.5214 24.5919C50.6115 24.5919 50.7031 24.5813 50.7946 24.5591L53.3676 23.936C53.9888 23.7856 54.3705 23.1602 54.2199 22.539C54.075 21.9408 53.4907 21.5662 52.8919 21.6736C52.6979 19.6469 52.1199 17.6674 51.1758 15.7751C51.2906 15.8101 51.4033 15.8559 51.5127 15.9132L58.4058 19.5125C58.9724 19.8084 59.6714 19.5885 59.9673 19.0223C60.2631 18.4557 60.0437 17.7566 59.4771 17.4608L52.584 13.8618C51.7059 13.4032 50.7257 13.2799 49.8033 13.4527C49.0093 12.2983 48.0705 11.1859 46.9906 10.1267C44.8739 8.05016 42.7743 6.71287 41.7533 6.12114V1.15723C41.7533 0.517977 41.2353 0 40.596 0C39.9568 0 39.4388 0.517977 39.4388 1.15723V6.20785C35.1176 9.38391 32.0288 14.5584 30.4897 21.2204C30.2763 22.1439 30.1064 23.0355 29.97 23.8799L21.37 20.527C20.5312 20.1999 19.6158 20.2191 18.7917 20.581C17.9675 20.9428 17.3337 21.6038 17.0069 22.4421L0.231517 65.4703C-0.44338 67.2013 0.415748 69.1586 2.14666 69.8333L10.1245 72.9435C10.2627 72.9975 10.4047 73.023 10.5446 73.023C11.0077 73.023 11.4448 72.7432 11.623 72.2859C11.8552 71.6905 11.5607 71.0194 10.9652 70.7874L2.98742 67.6772C2.44538 67.4658 2.17644 66.8531 2.38767 66.311L19.163 23.283C19.2655 23.0206 19.4639 22.8135 19.7219 22.7004C19.9801 22.587 20.2667 22.5811 20.529 22.6834L29.6562 26.2418C29.5392 27.3616 29.4829 28.3266 29.4575 29.0735C28.9628 29.0355 28.4809 29.321 28.2916 29.807C28.0594 30.4025 28.3538 31.0735 28.9494 31.3056L30.1617 31.7782C30.164 31.7791 30.1663 31.7799 30.1685 31.7808L31.4158 32.2672C31.5541 32.3212 31.696 32.3466 31.836 32.3466C32.299 32.3466 32.7361 32.0669 32.9143 31.6095C33.1466 31.0141 32.8522 30.3431 32.2566 30.111L31.7562 29.916C31.7637 29.2972 31.7962 28.3269 31.9042 27.1182L37.5207 29.308C37.4346 29.8597 37.4547 30.429 37.5892 30.9851L40.3688 42.4631L27.274 76.014C27.0629 76.5559 26.4496 76.8246 25.908 76.6138L15.276 72.4686C14.6802 72.2361 14.0095 72.5308 13.7774 73.1264C13.5452 73.7218 13.8396 74.3928 14.4352 74.6249L25.0674 78.7703C25.4683 78.9266 25.8808 79.0003 26.2873 79.0003C27.6357 79.0003 28.9119 78.185 29.4302 76.8551L41.3198 46.3914L48.4194 75.7085C48.896 77.6766 50.6624 79.0008 52.6035 79.0006C52.9377 79.0006 53.2774 78.9613 53.6164 78.8792L75.7081 73.5294C78.0156 72.9702 79.4381 70.6388 78.8794 68.3316V68.3316ZM40.6727 8.17237C41.9997 8.95481 45.2635 11.0974 47.6996 14.4918C47.4774 14.6924 47.2734 14.9178 47.0935 15.1687L38.4686 27.1932L32.187 24.7442C32.9481 19.6257 35.0287 12.4034 40.6727 8.17237V8.17237Z" fill="#006B5F"/>
</g>
<defs>
<clipPath id="clip0_225_7421">
<rect width="79" height="79" fill="white"/>
</clipPath>
</defs>
</svg>
