<svg width="79" height="79" viewBox="0 0 79 79" fill="none" xmlns="http://www.w3.org/2000/svg">
<path d="M56.6165 9.21667H53.9832C53.2564 9.21667 52.6665 9.80522 52.6665 10.5333C52.6665 11.2615 53.2564 11.85 53.9832 11.85H56.6165C57.3433 11.85 57.9332 11.2615 57.9332 10.5333C57.9332 9.80522 57.3433 9.21667 56.6165 9.21667Z" fill="#006B5F"/>
<path d="M18.4332 28.9667H14.4832V47.4H30.2832V28.9667H26.3332H18.4332ZM23.6998 31.6V35.55H21.0665V31.6H23.6998ZM27.6498 31.6V44.7667H17.1165V31.6H18.4332V38.1833H26.3332V31.6H27.6498Z" fill="#006B5F"/>
<path d="M34.2332 26.3334C33.5064 26.3334 32.9165 26.9219 32.9165 27.65V48.7167C32.9165 49.4448 33.5064 50.0334 34.2332 50.0334C34.96 50.0334 35.5498 49.4448 35.5498 48.7167V27.65C35.5498 26.9219 34.96 26.3334 34.2332 26.3334Z" fill="#006B5F"/>
<path d="M44.7666 26.3334C44.0398 26.3334 43.45 26.9219 43.45 27.65V48.7167C43.45 49.4448 44.0398 50.0334 44.7666 50.0334C45.4934 50.0334 46.0833 49.4448 46.0833 48.7167V27.65C46.0833 26.9219 45.4934 26.3334 44.7666 26.3334Z" fill="#006B5F"/>
<path d="M27.6499 59.25C27.6499 59.9781 28.2398 60.5667 28.9666 60.5667H50.0332C50.76 60.5667 51.3499 59.9781 51.3499 59.25C51.3499 58.5219 50.76 57.9333 50.0332 57.9333H28.9666C28.2398 57.9333 27.6499 58.5219 27.6499 59.25Z" fill="#006B5F"/>
<path d="M68.2427 0H10.7571C9.18234 0 7.8999 1.28243 7.8999 2.85717V52.6667V55.3V75.1422C7.8999 77.2699 9.63 79 11.7577 79H67.2421C69.3685 79 71.0999 77.2699 71.0999 75.1422V55.3V52.6667V2.85717C71.0999 1.28243 69.8175 0 68.2427 0ZM10.5332 2.85717C10.5332 2.7334 10.6333 2.63333 10.7571 2.63333H38.1832V52.6667H10.5332V2.85717ZM68.4666 75.1422C68.4666 75.8176 67.9175 76.3667 67.2421 76.3667H11.7577C11.0823 76.3667 10.5332 75.8176 10.5332 75.1422V55.3H68.4666V75.1422ZM40.8166 52.6667V2.63333H68.2427C68.3665 2.63333 68.4666 2.7334 68.4666 2.85717V52.6667H40.8166Z" fill="#006B5F"/>
</svg>
