<svg width="79" height="81" viewBox="0 0 79 81" fill="none" xmlns="http://www.w3.org/2000/svg">
<path d="M70.3596 32.3874L71.9828 33.5176C72.1889 33.6606 72.4296 33.7365 72.6765 33.7365C72.753 33.7365 72.832 33.7289 72.9085 33.7137C73.2295 33.6505 73.5134 33.4594 73.6973 33.1809L76.4697 28.9904C76.8536 28.412 76.7055 27.6248 76.1414 27.2325L40.1939 2.22247C39.7742 1.93138 39.2274 1.93138 38.8077 2.22247L2.85776 27.2337C2.29365 27.6261 2.14676 28.4133 2.52942 28.9917L5.30182 33.1822C5.48451 33.4606 5.76965 33.6517 6.09059 33.715C6.414 33.7783 6.74604 33.7062 7.01637 33.5188L8.64081 32.3874V45.05C7.91746 45.374 7.3262 45.9726 7.01637 46.7598C4.94139 52.0197 2.46893 58.9326 2.46893 62.0157C2.46893 66.5592 5.04878 70.0878 8.64081 70.7523V75.9375H2.46893V78.4688H76.5314V75.9375H70.3596V32.3874ZM6.65223 30.713L5.26603 28.6158L39.5002 4.79802L73.7343 28.6158L72.3481 30.7117L40.1939 8.3405C39.9841 8.19495 39.7421 8.12155 39.5002 8.12155C39.2582 8.12155 39.0163 8.19495 38.8065 8.3405L6.65223 30.713ZM4.93768 62.0157C4.93768 59.959 6.52879 54.7446 9.30367 47.709C9.44562 47.3509 9.75051 47.3129 9.87518 47.3129C9.99985 47.3129 10.3047 47.3509 10.4467 47.709C13.2216 54.7446 14.8127 59.959 14.8127 62.0157C14.8127 65.6822 12.7352 68.3438 9.87518 68.3438C7.01514 68.3438 4.93768 65.6822 4.93768 62.0157V62.0157ZM11.1096 70.7523C14.7016 70.0878 17.2814 66.5592 17.2814 62.0157C17.2814 58.9326 14.809 52.0197 12.734 46.7598C12.4242 45.9726 11.8329 45.374 11.1096 45.05V30.6699L39.5002 10.9173L67.8908 30.6699V55.3053L67.6834 54.9864C67.2255 54.2814 66.0874 54.2814 65.6294 54.9864L63.1607 58.7832C63.0261 58.9895 62.9533 59.2351 62.9533 59.4844V62.0157H60.4846V59.4844C60.4846 59.2351 60.4117 58.9895 60.2772 58.782L57.8084 54.9851C57.3505 54.2802 56.2124 54.2802 55.7544 54.9851L53.2857 58.782C53.1511 58.9895 53.0783 59.2351 53.0783 59.4844V62.0157H50.6096V59.4844C50.6096 59.2351 50.5367 58.9895 50.4022 58.782L47.9334 54.9851C47.4755 54.2802 46.3374 54.2802 45.8794 54.9851L43.4107 58.782C43.2761 58.9895 43.2033 59.2351 43.2033 59.4844V75.9375H35.7971V51.8907C35.7971 51.1908 35.2453 50.625 34.5627 50.625H20.9846C20.3019 50.625 19.7502 51.1908 19.7502 51.8907V75.9375H11.1096V70.7523ZM48.1408 75.9375H45.6721V59.8679L46.9064 57.9695L48.1408 59.8679V75.9375ZM50.6096 64.5469H53.0783V67.0782H50.6096V64.5469ZM50.6096 69.6094H53.0783V75.9375H50.6096V69.6094ZM58.0158 75.9375H55.5471V59.8679L56.7814 57.9695L58.0158 59.8679V75.9375ZM60.4846 64.5469H62.9533V67.0782H60.4846V64.5469ZM60.4846 69.6094H62.9533V75.9375H60.4846V69.6094ZM33.3283 75.9375H22.2189V53.1563H33.3283V75.9375ZM65.4221 75.9375V59.8679L66.6564 57.9695L67.8908 59.8679V75.9375H65.4221Z" fill="#006B5F"/>
<path d="M35.7969 41.7656H43.2031C45.9262 41.7656 48.1406 39.4951 48.1406 36.7031V29.1094C48.1406 26.3174 45.9262 24.0469 43.2031 24.0469H35.7969C33.0738 24.0469 30.8594 26.3174 30.8594 29.1094V36.7031C30.8594 39.4951 33.0738 41.7656 35.7969 41.7656ZM33.3281 36.7031V34.1719H38.2656V39.2344H35.7969C34.4354 39.2344 33.3281 38.0991 33.3281 36.7031ZM43.2031 39.2344H40.7344V34.1719H45.6719V36.7031C45.6719 38.0991 44.5646 39.2344 43.2031 39.2344ZM45.6719 29.1094V31.6406H40.7344V26.5781H43.2031C44.5646 26.5781 45.6719 27.7134 45.6719 29.1094ZM35.7969 26.5781H38.2656V31.6406H33.3281V29.1094C33.3281 27.7134 34.4354 26.5781 35.7969 26.5781Z" fill="#006B5F"/>
<path d="M28.3906 63.2812H30.8594V65.8125H28.3906V63.2812Z" fill="#006B5F"/>
</svg>
