<svg width="79" height="79" viewBox="0 0 79 79" fill="none" xmlns="http://www.w3.org/2000/svg">
<g clip-path="url(#clip0_225_7228)">
<path d="M77.6833 17.1167H48.7167C47.9895 17.1167 47.4 17.7062 47.4 18.4334V50.0334H40.8167V48.7167H42.1333C42.8605 48.7167 43.45 48.1272 43.45 47.4C43.45 46.6729 42.8605 46.0834 42.1333 46.0834H28.9667C28.2395 46.0834 27.65 46.6729 27.65 47.4C27.65 48.1272 28.2395 48.7167 28.9667 48.7167H30.2833V50.0334H17.1167V48.7167H18.4333C19.1605 48.7167 19.75 48.1272 19.75 47.4C19.75 46.6729 19.1605 46.0834 18.4333 46.0834H5.26667C4.53954 46.0834 3.95 46.6729 3.95 47.4C3.95 48.1272 4.53954 48.7167 5.26667 48.7167H6.58333V50.0334H1.31667C0.589537 50.0334 0 50.6229 0 51.35V77.6834C0 78.4105 0.589537 79 1.31667 79H77.6833C78.4105 79 79 78.4105 79 77.6834V18.4334C79 17.7062 78.4105 17.1167 77.6833 17.1167ZM32.9167 48.7167H38.1833V50.0334H32.9167V48.7167ZM9.21667 48.7167H14.4833V50.0334H9.21667V48.7167ZM21.0667 76.3667H2.63333V60.5667H21.0667V76.3667ZM21.0667 57.9334H2.63333V52.6667H21.0667V57.9334ZM47.4 76.3667H23.7V52.6667H47.4V76.3667ZM76.3667 76.3667H50.0333V40.8167H76.3667V76.3667ZM76.3667 38.1834H50.0333V19.75H76.3667V38.1834Z" fill="#006B5F"/>
<path d="M27.65 73.7334H43.45C44.1772 73.7334 44.7667 73.1438 44.7667 72.4167V56.6167C44.7667 55.8896 44.1772 55.3 43.45 55.3H27.65C26.9229 55.3 26.3334 55.8896 26.3334 56.6167V72.4167C26.3334 73.1438 26.9229 73.7334 27.65 73.7334ZM28.9667 57.9334H42.1334V71.1H28.9667V57.9334Z" fill="#006B5F"/>
<path d="M52.6666 36.8667C53.3938 36.8667 53.9833 36.2771 53.9833 35.55V30.2833C53.9833 29.5562 53.3938 28.9667 52.6666 28.9667C51.9395 28.9667 51.35 29.5562 51.35 30.2833V35.55C51.35 36.2771 51.9395 36.8667 52.6666 36.8667Z" fill="#006B5F"/>
<path d="M52.6666 50.0333C53.3938 50.0333 53.9833 49.4438 53.9833 48.7166V43.45C53.9833 42.7228 53.3938 42.1333 52.6666 42.1333C51.9395 42.1333 51.35 42.7228 51.35 43.45V48.7166C51.35 49.4438 51.9395 50.0333 52.6666 50.0333Z" fill="#006B5F"/>
<path d="M3.10401 23.3939C3.34134 23.592 3.64072 23.7003 3.94997 23.7H43.4499C44.1771 23.701 44.7674 23.1124 44.7686 22.3853C44.7691 22.0762 44.6606 21.7767 44.4625 21.5393L31.2958 5.73935C31.0451 5.43932 30.6742 5.26617 30.2833 5.26667H28.9666V1.31667C28.9666 0.589537 28.3771 0 27.6499 0H19.75C19.0228 0 18.4333 0.589537 18.4333 1.31667V5.26667H17.1166C16.7257 5.26617 16.3548 5.43932 16.1041 5.73935L2.93745 21.5393C2.47135 22.0975 2.54591 22.9278 3.10401 23.3939ZM21.0666 2.63333H26.3333V5.26667H21.0666V2.63333ZM17.7341 7.9H29.6658L40.6389 21.0667H6.76105L17.7341 7.9Z" fill="#006B5F"/>
</g>
<defs>
<clipPath id="clip0_225_7228">
<rect width="79" height="79" fill="white"/>
</clipPath>
</defs>
</svg>
