<svg width="79" height="78" viewBox="0 0 79 78" fill="none" xmlns="http://www.w3.org/2000/svg">
<g clip-path="url(#clip0_225_7446)">
<path d="M9.875 12.7969C10.2808 12.7969 10.6789 12.6339 10.9659 12.3504C11.2529 12.0671 11.418 11.6741 11.418 11.2734C11.418 10.8728 11.2529 10.4797 10.9659 10.1964C10.6789 9.91286 10.2808 9.75 9.875 9.75C9.4692 9.75 9.07111 9.91286 8.78412 10.1964C8.49713 10.4797 8.33203 10.8728 8.33203 11.2734C8.33203 11.6741 8.49713 12.0671 8.78412 12.3504C9.07111 12.6339 9.4692 12.7969 9.875 12.7969V12.7969Z" fill="#006B5F"/>
<path d="M18.9399 12.7969C19.3457 12.7969 19.7438 12.6339 20.0308 12.3504C20.3178 12.0671 20.4829 11.6741 20.4829 11.2734C20.4829 10.8728 20.3178 10.4797 20.0308 10.1964C19.7438 9.91301 19.3457 9.75 18.9399 9.75C18.5341 9.75 18.1361 9.91286 17.8491 10.1964C17.5621 10.4797 17.397 10.8728 17.397 11.2734C17.397 11.6741 17.5621 12.0671 17.8491 12.3504C18.1361 12.6339 18.5341 12.7969 18.9399 12.7969Z" fill="#006B5F"/>
<path d="M28.0049 12.7969C28.4107 12.7969 28.8088 12.6339 29.0958 12.3504C29.3828 12.0671 29.5479 11.6741 29.5479 11.2734C29.5479 10.8728 29.3828 10.4797 29.0958 10.1964C28.8088 9.91301 28.4107 9.75 28.0049 9.75C27.5991 9.75 27.201 9.91286 26.914 10.1964C26.627 10.4797 26.4619 10.8728 26.4619 11.2734C26.4619 11.6741 26.627 12.0671 26.914 12.3504C27.201 12.6339 27.5991 12.7969 28.0049 12.7969Z" fill="#006B5F"/>
<path d="M37.0698 12.7969C37.4756 12.7969 37.8737 12.6339 38.1607 12.3504C38.4477 12.0671 38.6128 11.6741 38.6128 11.2734C38.6128 10.8728 38.4477 10.4797 38.1607 10.1964C37.8737 9.91301 37.4756 9.75 37.0698 9.75C36.664 9.75 36.2659 9.91286 35.9789 10.1964C35.692 10.4797 35.5269 10.8728 35.5269 11.2734C35.5269 11.6741 35.692 12.0671 35.9789 12.3504C36.2659 12.6339 36.664 12.7969 37.0698 12.7969Z" fill="#006B5F"/>
<path d="M46.1343 12.7969H52.4608C53.3129 12.7969 54.0037 12.1147 54.0037 11.2734C54.0037 10.4322 53.3129 9.75 52.4608 9.75H46.1343C45.2821 9.75 44.5913 10.432 44.5913 11.2734C44.5913 12.1148 45.2821 12.7969 46.1343 12.7969Z" fill="#006B5F"/>
<path d="M78.644 42.2923C78.3509 41.9437 77.9158 41.7422 77.457 41.7422H77.3142C74.3884 35.6554 69.0011 31.916 63.0442 31.916C62.8075 31.916 62.5716 31.9241 62.3359 31.936V10.6641C62.3359 6.46395 58.8751 3.04688 54.6211 3.04688H7.71484C3.46088 3.04688 0 6.46395 0 10.6641V67.3359C0 71.536 3.46088 74.9531 7.71484 74.9531H71.7481C72.4908 74.9531 73.1282 74.4304 73.2648 73.7095L78.9738 43.5455C79.058 43.1002 78.9372 42.6409 78.644 42.2923V42.2923ZM73.832 41.7422H65.7297C64.121 39.0606 61.7507 36.9941 58.9684 35.7523C60.2789 35.2325 61.6535 34.9629 63.0443 34.9629C67.3577 34.9629 71.3352 37.509 73.832 41.7422ZM39.5 41.7422C39.0411 41.7422 38.606 41.9437 38.313 42.2923C38.02 42.6409 37.899 43.1002 37.9834 43.5455L38.8021 47.8708C36.484 48.4992 34.0016 47.8699 32.2592 46.1493C30.4014 44.3153 27.9317 43.3052 25.3047 43.3052C23.9791 43.3052 22.694 43.5631 21.507 44.0535C22.8562 40.06 26.6756 37.1719 31.168 37.1719C34.6318 37.1719 37.8316 38.9046 39.7037 41.7422H39.5ZM25.3047 46.3521C27.1075 46.3521 28.8021 47.0453 30.0769 48.3039C31.9709 50.174 34.4645 51.1596 37.0118 51.1596C37.7981 51.1596 38.5895 51.0629 39.3701 50.872L39.7148 52.6936C37.8442 55.536 34.6191 57.2812 31.168 57.2812C25.7742 57.2812 21.349 53.1189 21.008 47.8771C22.2147 46.8897 23.7177 46.3521 25.3047 46.3521ZM52.731 37.4766C56.3599 37.4766 59.7112 39.0632 61.9673 41.7422H43.4946C45.7507 39.0632 49.1021 37.4766 52.731 37.4766ZM7.71484 6.09375H54.6211C57.1735 6.09375 59.25 8.14399 59.25 10.6641V16.4531H3.08594V10.6641C3.08594 8.14399 5.16247 6.09375 7.71484 6.09375ZM3.08594 67.3359V19.5H59.25V32.4416C57.679 32.8817 56.1682 33.5938 54.7664 34.5645C54.0982 34.476 53.4187 34.4295 52.731 34.4295C50.8274 34.4295 48.9854 34.7787 47.2783 35.4281C43.4969 30.3961 37.5543 27.4219 31.168 27.4219C28.4017 27.4219 25.7221 27.968 23.2032 29.0449C22.4212 29.3793 22.0618 30.2763 22.4005 31.0483C22.739 31.8203 23.6477 32.1755 24.4295 31.8409C26.559 30.9303 28.8262 30.4687 31.168 30.4687C36.3971 30.4687 41.275 32.826 44.4849 36.8373C43.4514 37.5018 42.4992 38.2919 41.6526 39.1955C39.1618 36.0259 35.3098 34.125 31.168 34.125C23.8512 34.125 17.8984 40.0023 17.8984 47.2266C17.8984 54.4509 23.8512 60.3281 31.168 60.3281C34.6738 60.3281 38.0001 58.9459 40.4508 56.5826L41.234 60.721C38.3068 62.8584 34.8426 63.9844 31.168 63.9844C21.8092 63.9844 14.1953 56.4668 14.1953 47.2266C14.1953 44.9144 14.663 42.6761 15.5851 40.5734C15.9237 39.8015 15.5644 38.9045 14.7824 38.5701C14.0003 38.236 13.0919 38.5907 12.7534 39.3627C11.6625 41.8496 11.1094 44.4955 11.1094 47.2266C11.1094 58.147 20.1077 67.0312 31.168 67.0312C34.9532 67.0312 38.67 65.9615 41.8523 63.987L43.3509 71.9062H7.71484C5.16247 71.9062 3.08594 69.856 3.08594 67.3359V67.3359ZM70.4668 71.9062H46.4903L41.358 44.7891H75.599L70.4668 71.9062Z" fill="#006B5F"/>
<path d="M18.0759 35.8234C18.4817 35.8234 18.8798 35.6605 19.1668 35.377C19.4538 35.0936 19.6189 34.7007 19.6189 34.2999C19.6189 33.8993 19.4538 33.5062 19.1668 33.223C18.8798 32.9396 18.4817 32.7765 18.0759 32.7765C17.6686 32.7765 17.272 32.9395 16.985 33.223C16.6981 33.5062 16.533 33.8993 16.533 34.2999C16.533 34.7007 16.6981 35.0936 16.985 35.377C17.272 35.6605 17.6701 35.8234 18.0759 35.8234Z" fill="#006B5F"/>
</g>
<defs>
<clipPath id="clip0_225_7446">
<rect width="79" height="78" fill="white"/>
</clipPath>
</defs>
</svg>
