<svg width="80" height="80" viewBox="0 0 80 80" fill="none" xmlns="http://www.w3.org/2000/svg">
<path d="M75.6027 31.9762C76.9103 31.9762 77.9801 30.9064 77.9801 29.5988V18.1872C77.9801 8.20208 69.778 0 59.7929 0C49.8078 0 41.6057 8.20208 41.6057 18.1872V27.2214H6.53882C4.04253 27.2214 2.02173 29.2422 2.02173 31.7385V75.4829C2.02173 77.9792 4.04253 80 6.53882 80H53.9682C56.4645 80 58.4853 77.9792 58.4853 75.4829V31.7385C58.4853 29.2422 56.4645 27.2214 53.9682 27.2214H46.3605V18.1872C46.3605 10.8172 52.4229 4.75483 59.7929 4.75483C67.1629 4.75483 73.2253 10.8172 73.2253 18.1872V29.5988C73.2253 30.9064 74.2951 31.9762 75.6027 31.9762ZM53.7305 75.364H6.65769V31.9762H53.7305V75.364ZM30.1941 41.367C25.4393 41.367 21.5165 45.2897 21.5165 50.0446C21.5165 52.1842 22.3486 54.3239 23.7751 55.8692L21.6354 62.8826C21.3977 63.5958 21.5165 64.4279 21.992 65.0223C22.4675 65.6166 23.1807 65.9732 23.8939 65.9732H36.4942C37.2075 65.9732 37.9207 65.6166 38.3962 65.0223C38.8717 64.4279 38.9905 63.5958 38.7528 62.8826L36.6131 55.8692C38.0396 54.3239 38.8717 52.1842 38.8717 50.0446C38.8717 45.1709 34.9489 41.367 30.1941 41.367ZM31.6205 55.8692L33.2847 61.2184H27.1035L28.7676 55.8692C29.1243 54.9183 28.7676 53.8484 27.9355 53.2541C26.8657 52.5409 26.2714 51.3521 26.2714 50.0446C26.2714 47.9049 28.0544 46.1218 30.1941 46.1218C32.3338 46.1218 34.1168 47.9049 34.1168 50.0446C34.1168 51.3521 33.5225 52.422 32.4526 53.2541C31.6205 53.7296 31.2639 54.7994 31.6205 55.8692Z" fill="#006B5F"/>
</svg>
