<svg width="79" height="79" viewBox="0 0 79 79" fill="none" xmlns="http://www.w3.org/2000/svg">
<g clip-path="url(#clip0_225_7010)">
<path d="M77.5707 0H54.7479C53.9585 0 53.3185 0.640025 53.3185 1.42941C53.3185 2.21879 53.9585 2.85882 54.7479 2.85882H61.0329V15.2284H33.3751V2.85882H49.983C50.7724 2.85882 51.4124 2.21879 51.4124 1.42941C51.4124 0.640025 50.7726 0 49.9832 0H1.42941C0.640025 0 0 0.640025 0 1.42941V16.6578V31.886V47.1142V62.3425V77.5707C0 78.3601 0.640025 79.0002 1.42941 79.0002H77.5706C78.36 79.0002 79 78.3601 79 77.5707V1.42941C79.0002 0.640025 78.3601 0 77.5707 0ZM48.4836 18.0872H76.141V30.4566H57.6065C56.8172 30.4566 56.1771 31.0966 56.1771 31.886C56.1771 32.6754 56.8172 33.3154 57.6065 33.3154H61.0329V45.6848H33.3751V33.3154H52.8417C53.6311 33.3154 54.2711 32.6754 54.2711 31.886C54.2711 31.0966 53.6311 30.4566 52.8417 30.4566H48.4836V18.0872V18.0872ZM76.1412 48.5434V60.913H48.4836V48.5434H76.1412ZM45.6247 18.0872V30.4566H17.9673V18.0872H45.6247V18.0872ZM2.85882 2.85882H30.5163V15.2284H2.85882V2.85882ZM2.85882 18.0872H15.1085V30.4566H2.85882V18.0872V18.0872ZM2.85882 33.3155H30.5163V45.6849H2.85882V33.3155ZM2.85882 48.5434H15.1085V60.913H2.85882V48.5434V48.5434ZM30.5163 76.1412H2.85882V63.7718H23.4913C24.2807 63.7718 24.9207 63.1318 24.9207 62.3424C24.9207 61.553 24.2807 60.913 23.4913 60.913H17.9673V48.5434H45.6247V60.913H28.256C27.4666 60.913 26.8266 61.553 26.8266 62.3424C26.8266 63.1318 27.4666 63.7718 28.256 63.7718H30.5163V76.1412ZM61.0329 76.1412H33.3751V63.7718H61.0329V76.1412ZM76.1413 76.1413H63.8917V63.772H76.1413V76.1413ZM76.1413 45.6846H63.8917V33.3152H76.1413V45.6846ZM76.1413 15.2284H63.8917V2.85882H76.1413V15.2284Z" fill="#006B5F"/>
</g>
<defs>
<clipPath id="clip0_225_7010">
<rect width="79" height="79" fill="white"/>
</clipPath>
</defs>
</svg>
