<svg width="80" height="78" viewBox="0 0 80 78" fill="none" xmlns="http://www.w3.org/2000/svg">
<path d="M17.4211 71.8239H6.24986C5.91834 71.8239 5.6004 71.6978 5.36598 71.4735C5.13156 71.2491 4.99986 70.9448 4.99986 70.6275C5.00034 70.4139 5.0614 70.2043 5.17653 70.0212C5.29166 69.8381 5.45655 69.6884 5.65361 69.5879C5.83025 69.4954 5.98092 69.3634 6.0928 69.2032C6.20468 69.0429 6.27445 68.8592 6.29617 68.6676C6.3179 68.476 6.29094 68.2822 6.21758 68.1027C6.14423 67.9232 6.02665 67.7634 5.87486 67.6367C5.60178 67.4162 5.38208 67.1415 5.23099 66.8317C5.0799 66.5218 5.00103 66.1842 4.99986 65.8423C5.00274 65.2319 5.24986 64.6458 5.69041 64.2044C6.13095 63.7631 6.73144 63.5001 7.3684 63.4694C8.00536 63.4388 8.63037 63.6429 9.11494 64.0397C9.59951 64.4365 9.90679 64.996 9.97361 65.603C9.99082 65.6817 9.99962 65.7619 9.99986 65.8423C9.99986 66.1596 10.1316 66.4638 10.366 66.6882C10.6004 66.9125 10.9183 67.0386 11.2499 67.0386C11.7433 67.0394 12.2249 67.1833 12.6311 67.4513C12.7669 67.5397 12.9195 67.6016 13.0802 67.6335C13.241 67.6654 13.4067 67.6668 13.568 67.6374C13.7293 67.608 13.883 67.5485 14.0202 67.4623C14.1575 67.3761 14.2756 67.2648 14.368 67.1349C14.4603 67.005 14.525 66.8589 14.5584 66.7051C14.5917 66.5512 14.5931 66.3926 14.5624 66.2382C14.5317 66.0839 14.4695 65.9368 14.3794 65.8054C14.2894 65.6741 14.1731 65.561 14.0374 65.4726C13.5273 65.1392 12.9567 64.8998 12.3549 64.7668C12.0818 63.621 11.3768 62.6118 10.3749 61.9324C9.37303 61.2529 8.14454 60.9508 6.9245 61.084C5.70447 61.2171 4.57857 61.7761 3.76223 62.654C2.94588 63.5319 2.49643 64.6671 2.49986 65.8423C2.50107 66.7582 2.77983 67.6542 3.30236 68.4215C2.86719 68.95 2.59646 69.5851 2.52123 70.2541C2.446 70.9231 2.56931 71.5988 2.87702 72.2038C3.18472 72.8087 3.66437 73.3184 4.26093 73.6744C4.8575 74.0304 5.54683 74.2183 6.24986 74.2165H17.4211C17.7526 74.2165 18.0706 74.0904 18.305 73.8661C18.5394 73.6417 18.6711 73.3375 18.6711 73.0202C18.6711 72.7029 18.5394 72.3986 18.305 72.1742C18.0706 71.9499 17.7526 71.8239 17.4211 71.8239Z" fill="#006B5F"/>
<path d="M48.0586 71.9495L44.4336 70.2161C42.722 69.4036 41.2824 68.1486 40.2779 66.5933C39.2733 65.038 38.744 63.2444 38.7499 61.416C38.7568 59.6047 38.3056 57.8187 37.4349 56.2105C36.5643 54.6023 35.2999 53.2196 33.7499 52.1804V47.8976C33.7499 46.9457 33.3548 46.0329 32.6515 45.3598C31.9483 44.6867 30.9944 44.3086 29.9999 44.3086H26.2499V6.02645C26.2499 5.70917 26.3816 5.40488 26.616 5.18053C26.8504 4.95618 27.1684 4.83014 27.4999 4.83014C27.8314 4.83014 28.1493 4.95618 28.3838 5.18053C28.6182 5.40488 28.7499 5.70917 28.7499 6.02645V40.7197C28.7499 41.0369 28.8816 41.3412 29.116 41.5656C29.3504 41.7899 29.6684 41.916 29.9999 41.916C30.3314 41.916 30.6493 41.7899 30.8838 41.5656C31.1182 41.3412 31.2499 41.0369 31.2499 40.7197V6.02645C31.2499 5.0746 30.8548 4.16174 30.1515 3.48868C29.4483 2.81562 28.4944 2.4375 27.4999 2.4375C26.5053 2.4375 25.5515 2.81562 24.8482 3.48868C24.145 4.16174 23.7499 5.0746 23.7499 6.02645V44.5287C23.0212 44.7753 22.39 45.2313 21.9425 45.8343C21.495 46.4373 21.2531 47.1579 21.2499 47.8976V52.1337C19.7775 53.0684 18.5561 54.3222 17.6849 55.7933C16.6497 57.6131 16.1569 59.6701 16.2603 61.7398C16.3637 63.8095 17.0593 65.8121 18.2711 67.5291C18.3535 67.6701 18.4648 67.7936 18.5983 67.8922C18.7319 67.9909 18.885 68.0626 19.0483 68.1032C19.2116 68.1437 19.3818 68.1522 19.5486 68.1281C19.7154 68.104 19.8754 68.0478 20.0189 67.963C20.1625 67.8781 20.2866 67.7663 20.3838 67.6344C20.481 67.5024 20.5492 67.353 20.5845 67.1951C20.6197 67.0372 20.6212 66.8741 20.5888 66.7156C20.5565 66.5571 20.4909 66.4066 20.3961 66.273C19.6288 65.1652 19.1189 63.9127 18.9009 62.6001C18.6829 61.2875 18.7618 59.9453 19.1324 58.6644H23.7499V61.0571C23.7499 61.3743 23.8816 61.6786 24.116 61.903C24.3504 62.1273 24.6684 62.2534 24.9999 62.2534C25.3314 62.2534 25.6493 62.1273 25.8838 61.903C26.1182 61.6786 26.2499 61.3743 26.2499 61.0571V58.6644H28.7499V61.0571C28.7499 61.3743 28.8816 61.6786 29.116 61.903C29.3504 62.1273 29.6684 62.2534 29.9999 62.2534C30.3314 62.2534 30.6493 62.1273 30.8838 61.903C31.1182 61.6786 31.2499 61.3743 31.2499 61.0571V58.6644H35.7974C36.0962 59.5536 36.2488 60.4819 36.2499 61.416C36.2432 63.4773 36.7846 65.5063 37.8231 67.3122C38.8615 69.1181 40.363 70.6415 42.1861 71.739C40.3079 71.557 38.497 70.971 36.8888 70.0249C35.2805 69.0788 33.9165 67.797 32.8986 66.2754C32.7176 66.0204 32.4407 65.842 32.1257 65.7776C31.8106 65.7132 31.4818 65.7677 31.2077 65.9297C30.9336 66.0917 30.7355 66.3488 30.6546 66.6472C30.5737 66.9457 30.6164 67.2625 30.7736 67.5315C31.8106 69.1298 33.1803 70.5066 34.7974 71.5763C33.1338 71.2704 31.5532 70.6424 30.1523 69.7309C28.7515 68.8193 27.5601 67.6435 26.6511 66.2754C26.4701 66.0204 26.1932 65.842 25.8782 65.7776C25.5631 65.7132 25.2343 65.7677 24.9602 65.9297C24.6861 66.0917 24.488 66.3488 24.4071 66.6472C24.3262 66.9457 24.3689 67.2625 24.5261 67.5315C25.5675 69.1299 26.943 70.505 28.5661 71.5703C26.6413 71.2098 24.8283 70.4323 23.2661 69.2973C23.1359 69.2016 22.9872 69.1314 22.8286 69.0908C22.67 69.0501 22.5046 69.0397 22.3418 69.0602C22.179 69.0807 22.022 69.1316 21.8798 69.2102C21.7376 69.2888 21.613 69.3934 21.513 69.518C21.413 69.6427 21.3397 69.785 21.2972 69.9368C21.2547 70.0885 21.2438 70.2469 21.2652 70.4027C21.2866 70.5585 21.3399 70.7087 21.422 70.8448C21.5041 70.9809 21.6134 71.1002 21.7436 71.1959C24.4562 73.1628 27.7679 74.2239 31.1711 74.2166H47.4999C47.784 74.2196 48.0608 74.1299 48.2845 73.9623C48.5083 73.7946 48.6656 73.559 48.7307 73.2943C48.7958 73.0296 48.7647 72.7515 48.6425 72.506C48.5203 72.2604 48.3144 72.0621 48.0586 71.9436V71.9495ZM23.7499 47.8976C23.7499 47.5803 23.8816 47.276 24.116 47.0516C24.3504 46.8273 24.6684 46.7013 24.9999 46.7013H29.9999C30.3314 46.7013 30.6493 46.8273 30.8838 47.0516C31.1182 47.276 31.2499 47.5803 31.2499 47.8976V50.9398C30.069 50.5199 28.8208 50.3001 27.5611 50.2902H27.4999C26.2208 50.2975 24.9524 50.5143 23.7499 50.9314V47.8976ZM20.3374 56.2718C21.1416 55.1664 22.2126 54.2629 23.4595 53.6381C24.7064 53.0133 26.0924 52.6856 27.4999 52.6828H27.5474C28.9291 52.7012 30.2861 53.0367 31.5042 53.6612C32.7223 54.2858 33.7659 55.181 34.5474 56.2718H20.3374Z" fill="#006B5F"/>
<path d="M73.6162 67.0386H73.0637C72.6263 66.3135 71.9977 65.7109 71.2407 65.291C70.4837 64.8712 69.6249 64.6488 68.75 64.646C68.0553 64.6457 67.3684 64.7868 66.735 65.0599C66.1908 64.7939 65.5875 64.6575 64.9765 64.6623C64.3654 64.6671 63.7646 64.8129 63.225 65.0874L63.4012 63.1578C63.5737 63.1638 63.7537 63.1889 63.9237 63.1889C64.2421 63.1889 64.555 63.1769 64.8625 63.153C67.4875 62.9496 69.395 61.8909 70.22 60.1754C71.67 57.1594 69.2937 53.1937 64.5475 50.5366L65 45.6078C65.0148 45.437 64.9905 45.2651 64.9287 45.1042C64.9771 44.8415 65.001 44.5753 65 44.3086C64.998 43.4625 64.7612 42.632 64.3138 41.9022C63.8664 41.1724 63.2245 40.5695 62.4537 40.155C62.3431 39.498 62.0444 38.8832 61.5907 38.3789C61.137 37.8746 60.5462 37.5005 59.8837 37.2982C59.6675 36.3525 59.1559 35.492 58.4169 34.831C57.6779 34.1699 56.7464 33.7395 55.7459 33.5967C54.7454 33.454 53.7233 33.6057 52.8149 34.0317C51.9066 34.4578 51.1551 35.138 50.66 35.9822C50.4414 35.9519 50.2209 35.9359 50 35.9344C48.8693 35.9363 47.7726 36.3051 46.889 36.9803C46.0055 37.6556 45.3871 38.5976 45.135 39.6525C45.0175 39.6789 44.9062 39.7207 44.7925 39.7554C44.3313 39.3033 43.7804 38.9441 43.172 38.6988C42.5636 38.4535 41.9101 38.3271 41.25 38.327C40.2834 38.3246 39.3369 38.5911 38.5256 39.0942C37.7144 39.5972 37.0734 40.3151 36.6807 41.1604C36.2881 42.0058 36.1606 42.9421 36.3138 43.8555C36.467 44.7689 36.8943 45.62 37.5437 46.3053C37.5612 46.3232 37.5862 46.3292 37.6037 46.3471L39.7925 62.4077C39.8316 62.6957 39.9789 62.9602 40.2068 63.1519C40.4348 63.3437 40.7278 63.4495 41.0312 63.4497C41.086 63.45 41.1407 63.4468 41.195 63.4401C41.5235 63.3987 41.8213 63.2342 42.0231 62.9828C42.2249 62.7313 42.3142 62.4134 42.2712 62.099L40.1737 46.7012H41.945C42.3114 47.3179 42.8179 47.8479 43.427 48.2522C44.0361 48.6565 44.7323 48.9246 45.4642 49.0369C46.1961 49.1492 46.945 49.1028 47.6556 48.901C48.3663 48.6993 49.0205 48.3474 49.57 47.8712C50.0968 47.9326 50.6313 47.8863 51.138 47.7353C51.6447 47.5843 52.1122 47.3321 52.5095 46.9954C52.9068 46.6586 53.2249 46.245 53.4428 45.7818C53.6606 45.3187 53.7733 44.8165 53.7733 44.3086C53.7733 43.8007 53.6606 43.2985 53.4428 42.8354C53.2249 42.3722 52.9068 41.9586 52.5095 41.6218C52.1122 41.2851 51.6447 41.0329 51.138 40.8819C50.6313 40.7309 50.0968 40.6846 49.57 40.746C49.0408 40.2966 48.4173 39.9609 47.7412 39.7614C48.0043 39.201 48.4816 38.7583 49.0751 38.5243C49.6686 38.2902 50.3333 38.2826 50.9325 38.5029C51.0962 38.5659 51.2721 38.5949 51.4484 38.5882C51.6248 38.5815 51.7976 38.5391 51.9556 38.4638C52.1136 38.3886 52.2532 38.2821 52.3651 38.1515C52.477 38.0209 52.5588 37.8691 52.605 37.7061C52.7652 37.151 53.1299 36.67 53.6316 36.3521C54.1334 36.0342 54.7385 35.9008 55.335 35.9764C55.9316 36.0521 56.4794 36.3318 56.8773 36.7638C57.2752 37.1959 57.4964 37.7511 57.5 38.327C57.5 38.6443 57.6317 38.9486 57.8661 39.1729C58.1005 39.3973 58.4185 39.5233 58.75 39.5233C59.077 39.5233 59.391 39.6458 59.6247 39.8648C59.8584 40.0837 59.9931 40.3816 60 40.6945L59.9825 40.8357C59.9599 41.0999 60.0296 41.3638 60.1808 41.586C60.3319 41.8082 60.5559 41.976 60.8175 42.0631C61.3061 42.2249 61.7303 42.5278 62.0317 42.9299C62.333 43.3321 62.4966 43.8137 62.5 44.3086H57.1537C56.8222 44.3086 56.5043 44.4346 56.2699 44.659C56.0354 44.8833 55.9037 45.1876 55.9037 45.5049C55.9037 45.8222 56.0354 46.1265 56.2699 46.3508C56.5043 46.5752 56.8222 46.7012 57.1537 46.7012H62.3862L61.9875 51.0941L61.1375 60.4445C60.1172 60.2154 59.1232 59.89 58.17 59.4731C53.4862 57.4095 51.185 53.9701 52.045 52.1672C52.1836 51.879 52.1968 51.5498 52.0818 51.2522C51.9669 50.9546 51.7331 50.7129 51.4319 50.5803C51.1307 50.4477 50.7868 50.435 50.4758 50.545C50.1649 50.6551 49.9123 50.8788 49.7737 51.1671C48.1612 54.5168 51.3875 59.1214 57.1187 61.6456C58.3351 62.1803 59.6095 62.5847 60.9187 62.8515L60.5587 66.8269C60.1843 66.9628 59.7879 67.0344 59.3875 67.0386H58.75C57.4239 67.0386 56.1521 67.5428 55.2145 68.4402C54.2768 69.3376 53.75 70.5548 53.75 71.8239V73.0202C53.75 73.3375 53.8817 73.6418 54.1161 73.8662C54.3505 74.0905 54.6685 74.2165 55 74.2165H61.25C61.5815 74.2165 61.8995 74.0905 62.1339 73.8662C62.3683 73.6418 62.5 73.3375 62.5 73.0202C62.5 72.7029 62.3683 72.3987 62.1339 72.1743C61.8995 71.9499 61.5815 71.8239 61.25 71.8239H56.25C56.25 71.1893 56.5134 70.5808 56.9822 70.1321C57.4511 69.6834 58.0869 69.4313 58.75 69.4313H59.3875C60.2785 69.4099 61.156 69.2181 61.9683 68.8672C62.7806 68.5163 63.5114 68.0133 64.1175 67.388C64.3422 67.1707 64.6462 67.0456 64.9655 67.0389C65.2848 67.0322 65.5943 67.1445 65.8287 67.3521C66.0367 67.5309 66.3013 67.6379 66.5802 67.6559C66.8592 67.6739 67.1363 67.6019 67.3675 67.4514C67.7747 67.1844 68.2564 67.0406 68.75 67.0386C69.2647 67.0417 69.766 67.1967 70.1852 67.4825C70.6045 67.7684 70.9213 68.1711 71.0925 68.6357C71.1789 68.8684 71.3385 69.0698 71.5494 69.2123C71.7602 69.3547 72.0119 69.4312 72.27 69.4313H73.6162C73.9277 69.4203 74.2336 69.5124 74.4823 69.6922C74.731 69.8721 74.9072 70.1285 74.9812 70.4182C75.0132 70.5904 75.0054 70.7672 74.9582 70.9362C74.9111 71.1051 74.8258 71.2621 74.7085 71.3961C74.5911 71.5302 74.4444 71.6379 74.2788 71.7118C74.1132 71.7857 73.9327 71.824 73.75 71.8239H66.25C65.9185 71.8239 65.6005 71.9499 65.3661 72.1743C65.1317 72.3987 65 72.7029 65 73.0202C65 73.3375 65.1317 73.6418 65.3661 73.8662C65.6005 74.0905 65.9185 74.2165 66.25 74.2165H73.75C74.2955 74.2169 74.8346 74.1033 75.3296 73.8837C75.8245 73.6641 76.2635 73.3438 76.6158 72.9451C76.9681 72.5465 77.2252 72.079 77.3693 71.5755C77.5134 71.0719 77.5409 70.5443 77.45 70.0294C77.2789 69.1798 76.8011 68.4147 76.1003 67.868C75.3996 67.3213 74.5203 67.0278 73.6162 67.0386V67.0386ZM39.105 44.3086C38.8728 43.9492 38.7498 43.5349 38.75 43.1123C38.75 42.4777 39.0134 41.8691 39.4822 41.4204C39.9511 40.9717 40.5869 40.7196 41.25 40.7196C41.7179 40.7235 42.175 40.8551 42.5675 41.0989C41.7237 41.9731 41.2536 43.1185 41.25 44.3086H39.105ZM49.5775 43.1912C49.7124 43.1414 49.8554 43.1146 50 43.1123C50.3315 43.1123 50.6495 43.2383 50.8839 43.4627C51.1183 43.687 51.25 43.9913 51.25 44.3086C51.25 44.6259 51.1183 44.9302 50.8839 45.1545C50.6495 45.3789 50.3315 45.5049 50 45.5049C49.8554 45.5026 49.7124 45.4758 49.5775 45.426C49.3331 45.342 49.0675 45.3329 48.8175 45.4C48.5675 45.4671 48.3456 45.6071 48.1825 45.8004C47.9517 46.0761 47.6597 46.2991 47.3276 46.4533C46.9956 46.6076 46.6318 46.6892 46.2628 46.6922C45.8937 46.6952 45.5285 46.6196 45.1938 46.4709C44.859 46.3221 44.563 46.1039 44.3273 45.8321C44.0916 45.5603 43.922 45.2417 43.8309 44.8994C43.7398 44.5571 43.7294 44.1996 43.8005 43.853C43.8716 43.5064 44.0224 43.1793 44.242 42.8953C44.4615 42.6114 44.7444 42.3778 45.07 42.2115H45.08C45.588 41.9441 46.179 41.859 46.7467 41.9712C47.3145 42.0835 47.8218 42.3859 48.1775 42.824C48.3419 43.017 48.5651 43.1562 48.8161 43.222C49.067 43.2879 49.3332 43.2771 49.5775 43.1912ZM67.9525 59.1752C67.5941 59.6894 67.103 60.1063 66.5268 60.3854C65.9506 60.6646 65.3089 60.7966 64.6637 60.7687C64.3165 60.7867 63.9685 60.7867 63.6212 60.7687L64.3062 53.2319C67.125 55.1221 68.7137 57.5877 67.9487 59.1752H67.9525Z" fill="#006B5F"/>
<path d="M66.2501 37.1307C66.9918 37.1307 67.7168 36.9202 68.3335 36.5258C68.9502 36.1315 69.4308 35.5709 69.7147 34.9151C69.9985 34.2594 70.0728 33.5377 69.9281 32.8415C69.7834 32.1454 69.4262 31.5059 68.9018 31.0039C68.3773 30.502 67.7091 30.1602 66.9817 30.0217C66.2543 29.8832 65.5003 29.9543 64.8151 30.226C64.1298 30.4976 63.5442 30.9576 63.1321 31.5478C62.7201 32.138 62.5001 32.8319 62.5001 33.5417C62.5001 34.4936 62.8952 35.4064 63.5985 36.0795C64.3017 36.7525 65.2556 37.1307 66.2501 37.1307V37.1307ZM66.2501 32.3454C66.4974 32.3454 66.739 32.4156 66.9446 32.547C67.1501 32.6785 67.3104 32.8653 67.405 33.0839C67.4996 33.3025 67.5243 33.543 67.4761 33.7751C67.4279 34.0072 67.3088 34.2203 67.134 34.3876C66.9592 34.5549 66.7365 34.6689 66.494 34.715C66.2515 34.7612 66.0002 34.7375 65.7718 34.647C65.5434 34.5564 65.3481 34.4031 65.2108 34.2064C65.0734 34.0096 65.0001 33.7783 65.0001 33.5417C65.0001 33.2244 65.1318 32.9201 65.3662 32.6958C65.6007 32.4714 65.9186 32.3454 66.2501 32.3454Z" fill="#006B5F"/>
<path d="M73.7501 45.5048C74.4918 45.5048 75.2168 45.2943 75.8335 44.9C76.4502 44.5056 76.9308 43.9451 77.2147 43.2893C77.4985 42.6335 77.5728 41.9119 77.4281 41.2157C77.2834 40.5195 76.9262 39.88 76.4018 39.3781C75.8773 38.8762 75.2091 38.5343 74.4817 38.3959C73.7543 38.2574 73.0003 38.3285 72.3151 38.6001C71.6298 38.8717 71.0442 39.3317 70.6321 39.9219C70.2201 40.5121 70.0001 41.206 70.0001 41.9159C70.0001 42.8677 70.3952 43.7806 71.0985 44.4536C71.8017 45.1267 72.7556 45.5048 73.7501 45.5048V45.5048ZM73.7501 40.7195C73.9973 40.7195 74.239 40.7897 74.4446 40.9212C74.6501 41.0526 74.8104 41.2394 74.905 41.458C74.9996 41.6766 75.0243 41.9172 74.9761 42.1492C74.9279 42.3813 74.8088 42.5945 74.634 42.7618C74.4592 42.9291 74.2365 43.043 73.994 43.0892C73.7515 43.1353 73.5002 43.1117 73.2718 43.0211C73.0434 42.9306 72.8481 42.7772 72.7108 42.5805C72.5734 42.3838 72.5001 42.1525 72.5001 41.9159C72.5001 41.5986 72.6318 41.2943 72.8662 41.0699C73.1007 40.8456 73.4186 40.7195 73.7501 40.7195Z" fill="#006B5F"/>
<path d="M6.24976 55.0755C6.24976 55.7854 6.46969 56.4792 6.88174 57.0694C7.2938 57.6596 7.87947 58.1197 8.56469 58.3913C9.24992 58.6629 10.0039 58.734 10.7313 58.5955C11.4588 58.457 12.127 58.1152 12.6514 57.6133C13.1759 57.1114 13.533 56.4719 13.6777 55.7757C13.8224 55.0795 13.7481 54.3579 13.4643 53.7021C13.1805 53.0463 12.6998 52.4858 12.0831 52.0914C11.4665 51.6971 10.7414 51.4866 9.99976 51.4866C9.00519 51.4866 8.05137 51.8647 7.34811 52.5378C6.64484 53.2108 6.24976 54.1237 6.24976 55.0755ZM11.2498 55.0755C11.2498 55.3121 11.1764 55.5434 11.0391 55.7402C10.9017 55.9369 10.7065 56.0902 10.4781 56.1808C10.2497 56.2713 9.99837 56.295 9.75589 56.2489C9.51342 56.2027 9.29069 56.0888 9.11587 55.9215C8.94106 55.7541 8.82201 55.541 8.77377 55.3089C8.72554 55.0769 8.7503 54.8363 8.84491 54.6177C8.93952 54.3991 9.09973 54.2123 9.30529 54.0808C9.51085 53.9494 9.75253 53.8792 9.99976 53.8792C10.3313 53.8792 10.6492 54.0052 10.8836 54.2296C11.1181 54.454 11.2498 54.7582 11.2498 55.0755Z" fill="#006B5F"/>
<path d="M6.24976 49.0939C6.99144 49.0939 7.71646 48.8834 8.33314 48.4891C8.94983 48.0947 9.43048 47.5342 9.7143 46.8784C9.99813 46.2226 10.0724 45.501 9.9277 44.8048C9.78301 44.1086 9.42585 43.4691 8.90141 42.9672C8.37696 42.4653 7.70877 42.1235 6.98134 41.985C6.25392 41.8465 5.49992 41.9176 4.81469 42.1892C4.12947 42.4609 3.5438 42.9209 3.13174 43.5111C2.71969 44.1013 2.49976 44.7951 2.49976 45.505C2.49976 46.4568 2.89484 47.3697 3.59811 48.0427C4.30137 48.7158 5.25519 49.0939 6.24976 49.0939ZM6.24976 44.3087C6.49698 44.3087 6.73866 44.3788 6.94422 44.5103C7.14978 44.6417 7.31 44.8286 7.40461 45.0472C7.49921 45.2658 7.52397 45.5063 7.47574 45.7384C7.42751 45.9704 7.30845 46.1836 7.13364 46.3509C6.95882 46.5182 6.73609 46.6321 6.49362 46.6783C6.25114 46.7245 5.99981 46.7008 5.7714 46.6102C5.54299 46.5197 5.34777 46.3663 5.21042 46.1696C5.07307 45.9729 4.99976 45.7416 4.99976 45.505C4.99976 45.1877 5.13145 44.8834 5.36587 44.659C5.60029 44.4347 5.91824 44.3087 6.24976 44.3087Z" fill="#006B5F"/>
</svg>
