<svg width="80" height="79" viewBox="0 0 80 79" fill="none" xmlns="http://www.w3.org/2000/svg">
<g clip-path="url(#clip0_225_7430)">
<path d="M23.696 34.2745L23.6931 34.3247C23.496 37.7339 25.4298 40.9277 28.621 42.4588L28.6537 42.4746C29.7788 43.0061 30.701 43.8822 31.2828 44.9717L31.2959 44.9954C32.9039 48.0189 36.2297 49.8517 39.7751 49.6679L39.8289 49.665C41.1148 49.5939 42.3911 49.9214 43.4791 50.6022C46.4813 52.4566 50.2922 52.4566 53.2943 50.6022C54.3823 49.9214 55.6587 49.5939 56.9445 49.665L56.9983 49.6679C60.5379 49.8532 63.8681 48.0189 65.4797 44.9904L65.4877 44.9739C66.0717 43.8815 66.996 43.0039 68.1248 42.4717L68.1509 42.4588C71.3422 40.9269 73.2767 37.7339 73.0789 34.324L73.076 34.2766C73.0106 33.0758 73.348 31.8872 74.0375 30.8954C76.0222 28.0371 76.0222 24.2681 74.0382 21.409C73.3495 20.418 73.0106 19.2301 73.076 18.0293L73.0789 17.979C73.2767 14.5691 71.3422 11.3761 68.148 9.84352L68.1189 9.82915C66.996 9.29914 66.0761 8.42727 65.4935 7.34067L65.4768 7.30835C63.8681 4.28482 60.5379 2.45275 56.9983 2.63589L56.9437 2.63876C55.6587 2.70986 54.3823 2.38237 53.295 1.70154H53.2936C50.2914 -0.152792 46.4805 -0.152792 43.4784 1.70154C42.3904 2.38165 41.114 2.70914 39.8282 2.63804L39.7744 2.63517C36.2341 2.44988 32.9046 4.28411 31.2966 7.30691L31.2843 7.32918C30.7017 8.42081 29.7788 9.2977 28.6523 9.82987L28.6217 9.84423C25.4305 11.3754 23.496 14.5691 23.6938 17.979L23.6967 18.0264C23.7621 19.2272 23.4247 20.4158 22.7352 21.4069C20.7505 24.266 20.7505 28.0357 22.7352 30.894C23.424 31.8851 23.7621 33.0737 23.696 34.2745V34.2745ZM25.1869 23.0774C26.2509 21.5477 26.7723 19.7134 26.6705 17.8605L26.6676 17.8103C26.5629 15.5509 27.8472 13.4524 29.9206 12.4922L29.9461 12.4799C31.6472 11.6756 33.0399 10.3513 33.9184 8.70377L33.933 8.67648C35.0013 6.66702 37.2391 5.44899 39.6159 5.57395L39.6682 5.57611C41.57 5.68168 43.4573 5.19763 45.066 4.19074C47.0973 2.93609 49.6747 2.93609 51.706 4.19074C53.3147 5.19619 55.2019 5.68096 57.103 5.57683L57.1554 5.57395C59.5437 5.45043 61.7706 6.66702 62.8361 8.67073L62.8557 8.70736C63.7342 10.3527 65.1255 11.6749 66.8244 12.4785L66.8491 12.4907C68.9553 13.5019 70.2338 15.5897 70.1051 17.811L70.1022 17.8634C70.0004 19.7163 70.5226 21.5498 71.5866 23.0795C72.8724 24.9317 72.8716 27.3735 71.5851 29.225C70.5218 30.7554 70.0004 32.5896 70.1022 34.4425L70.1051 34.4921C70.2338 36.7134 68.9553 38.8019 66.8484 39.8138L66.8266 39.8238C65.1241 40.6296 63.7299 41.9554 62.8506 43.6057L62.8397 43.6273C61.7706 45.6368 59.5365 46.8555 57.1561 46.7298L57.1045 46.7269C55.2027 46.6221 53.3147 47.1069 51.7052 48.113C49.6747 49.367 47.0973 49.367 45.0667 48.113C43.6035 47.1974 41.906 46.7119 40.1737 46.7133C40.0057 46.7133 39.8369 46.7176 39.6682 46.7269L39.6159 46.7291C37.2704 46.8763 35.0515 45.664 33.9308 43.6237L33.9155 43.5957C33.0384 41.9511 31.6479 40.6296 29.9497 39.826L29.9221 39.8123C27.8152 38.8011 26.5367 36.7127 26.6661 34.4921L26.669 34.4397C26.7701 32.5868 26.2479 30.7525 25.1847 29.2235C23.8996 27.3714 23.9003 24.9295 25.1869 23.0788V23.0774Z" fill="#006B5F"/>
<path d="M38.7755 41.3573C39.4729 41.7875 40.3915 41.5771 40.8271 40.8883L58.4714 12.9756C58.7594 12.5297 58.7834 11.9652 58.5332 11.4976C58.283 11.0294 57.7972 10.7306 57.2619 10.7141C56.7266 10.6976 56.2234 10.9662 55.9441 11.4179L38.3006 39.3306C37.8649 40.02 38.0773 40.9271 38.7755 41.3573V41.3573Z" fill="#006B5F"/>
<path d="M40.3567 26.2246C43.9836 26.2246 46.9349 22.9016 46.9349 18.8173C46.9349 14.7331 43.9836 11.4108 40.3567 11.4108C36.7298 11.4108 33.7793 14.7331 33.7793 18.8173C33.7793 22.9016 36.7298 26.2246 40.3567 26.2246ZM40.3567 14.3524C42.3414 14.3524 43.956 16.3554 43.956 18.8173C43.956 21.2792 42.3414 23.283 40.3567 23.283C38.3727 23.283 36.7582 21.2785 36.7582 18.8173C36.7582 16.3561 38.3727 14.3524 40.3567 14.3524Z" fill="#006B5F"/>
<path d="M49.8376 33.4881C49.8376 37.5724 52.7882 40.8947 56.4151 40.8947C60.0419 40.8947 62.9932 37.5717 62.9932 33.4881C62.9932 29.4053 60.0427 26.0815 56.4158 26.0815C52.7882 26.0815 49.8376 29.4031 49.8376 33.4881V33.4881ZM60.0143 33.4881C60.0143 35.95 58.3998 37.953 56.4151 37.953C54.4311 37.953 52.8165 35.95 52.8165 33.4881C52.8165 31.0262 54.4311 29.0232 56.4151 29.0232C58.3998 29.0232 60.0143 31.0248 60.0143 33.4881Z" fill="#006B5F"/>
<path d="M79.8066 57.9119C77.8343 54.4554 73.4605 53.1389 69.8714 54.9215L58.2038 60.3652C56.5929 57.4071 53.5028 55.524 50.1021 55.4292L39.3312 55.1362C37.6258 55.0881 35.9523 54.6608 34.436 53.888L33.34 53.3271C27.7284 50.4386 21.0397 50.4458 15.4339 53.3458L15.5023 50.8939C15.5248 50.0817 14.8768 49.4051 14.0543 49.3829L2.24347 49.0618C1.42093 49.0396 0.736566 49.6795 0.714021 50.4917L0.000570907 76.0869C-0.0219745 76.8991 0.626021 77.5756 1.44856 77.5979L13.2594 77.9189H13.3009C14.1074 77.9182 14.767 77.2841 14.7896 76.4883L14.823 75.2638L17.8914 73.6415C19.0957 73.0016 20.5044 72.8493 21.8201 73.217L40.1421 78.2953C40.1741 78.3046 40.2061 78.3118 40.2389 78.3189C41.5632 78.5926 42.913 78.7297 44.2665 78.729C47.1319 78.7305 49.9639 78.1207 52.5682 76.94C52.6322 76.9113 52.6941 76.8783 52.753 76.8409L79.3186 59.8711C79.9812 59.4488 80.195 58.5892 79.8066 57.9119V57.9119ZM3.01946 74.6972L3.65073 52.0437L12.4841 52.2836L11.8521 74.9378L3.01946 74.6972ZM51.2257 74.3115C47.9901 75.7536 44.3763 76.1515 40.8985 75.4491L22.6252 70.3852C20.5692 69.8107 18.367 70.0491 16.4856 71.0481L14.9176 71.8769L15.3379 56.8146C20.3059 53.5512 26.6782 53.2158 31.9698 55.9384L33.0658 56.4993C34.9814 57.476 37.0949 58.0154 39.2498 58.0764L50.0206 58.3694C53.046 58.4549 55.6155 60.5821 56.2293 63.5094L40.1858 63.0735C39.3632 63.0512 38.6789 63.6911 38.6563 64.5034C38.6338 65.3156 39.2818 65.9922 40.1043 66.0144L57.8097 66.4956H57.8518C58.6577 66.4949 59.3173 65.8607 59.3398 65.065C59.358 64.4258 59.3093 63.7859 59.1958 63.1568L71.1608 57.573L71.1958 57.5564C72.8932 56.7076 74.9463 56.9912 76.3419 58.2674L51.2257 74.3115Z" fill="#006B5F"/>
</g>
<defs>
<clipPath id="clip0_225_7430">
<rect width="80" height="79" fill="white"/>
</clipPath>
</defs>
</svg>
