<svg width="79" height="79" viewBox="0 0 79 79" fill="none" xmlns="http://www.w3.org/2000/svg">
<path d="M67.8906 1.23438H11.1094C10.4549 1.23523 9.82745 1.49561 9.36465 1.9584C8.90186 2.4212 8.64148 3.04864 8.64062 3.70312V71.5938C8.64148 72.2482 8.90186 72.8757 9.36465 73.3385C9.82745 73.8013 10.4549 74.0616 11.1094 74.0625V76.5312C11.1094 76.8586 11.2394 77.1726 11.4709 77.4041C11.7024 77.6356 12.0164 77.7656 12.3438 77.7656H24.6875C25.0149 77.7656 25.3288 77.6356 25.5603 77.4041C25.7918 77.1726 25.9219 76.8586 25.9219 76.5312V74.0625H53.0781V76.5312C53.0781 76.8586 53.2082 77.1726 53.4397 77.4041C53.6712 77.6356 53.9851 77.7656 54.3125 77.7656H66.6562C66.9836 77.7656 67.2976 77.6356 67.5291 77.4041C67.7606 77.1726 67.8906 76.8586 67.8906 76.5312V74.0625C68.5451 74.0616 69.1726 73.8013 69.6354 73.3385C70.0981 72.8757 70.3585 72.2482 70.3594 71.5938V3.70312C70.3585 3.04864 70.0981 2.4212 69.6354 1.9584C69.1726 1.49561 68.5451 1.23523 67.8906 1.23438V1.23438ZM11.1094 3.70312H67.8906V13.5781H11.1094V3.70312ZM23.4531 75.2969H13.5781V74.0625H23.4531V75.2969ZM65.4219 75.2969H55.5469V74.0625H65.4219V75.2969ZM67.8922 71.5938H11.1094V67.8906H67.8922V71.5938ZM11.1094 65.4219V16.0469H67.8906L67.8922 65.4219H11.1094Z" fill="#006B5F"/>
<path d="M51.8438 12.3438C52.5762 12.3438 53.2921 12.1266 53.9011 11.7197C54.5101 11.3128 54.9847 10.7344 55.265 10.0578C55.5453 9.38109 55.6186 8.63652 55.4757 7.91818C55.3329 7.19985 54.9802 6.54001 54.4623 6.02212C53.9444 5.50423 53.2845 5.15154 52.5662 5.00866C51.8479 4.86577 51.1033 4.9391 50.4266 5.21939C49.75 5.49967 49.1716 5.9743 48.7647 6.58328C48.3578 7.19226 48.1406 7.90822 48.1406 8.64063C48.1417 9.62242 48.5322 10.5637 49.2265 11.2579C49.9207 11.9521 50.862 12.3426 51.8438 12.3438V12.3438ZM51.8438 7.40625C52.0879 7.40625 52.3265 7.47865 52.5295 7.61428C52.7325 7.74992 52.8907 7.9427 52.9842 8.16825C53.0776 8.3938 53.102 8.642 53.0544 8.88144C53.0068 9.12089 52.8892 9.34083 52.7166 9.51346C52.544 9.68609 52.324 9.80365 52.0846 9.85128C51.8451 9.89891 51.5969 9.87447 51.3714 9.78104C51.1458 9.68761 50.953 9.5294 50.8174 9.32641C50.6818 9.12342 50.6094 8.88476 50.6094 8.64063C50.6097 8.31336 50.7399 7.99961 50.9713 7.7682C51.2027 7.53679 51.5165 7.40662 51.8438 7.40625V7.40625Z" fill="#006B5F"/>
<path d="M39.5 12.3438C40.2324 12.3438 40.9484 12.1266 41.5574 11.7197C42.1663 11.3128 42.641 10.7344 42.9213 10.0578C43.2015 9.38109 43.2749 8.63652 43.132 7.91818C42.9891 7.19985 42.6364 6.54001 42.1185 6.02212C41.6006 5.50423 40.9408 5.15154 40.2225 5.00866C39.5041 4.86577 38.7595 4.9391 38.0829 5.21939C37.4062 5.49967 36.8279 5.9743 36.421 6.58328C36.0141 7.19226 35.7969 7.90822 35.7969 8.64063C35.798 9.62242 36.1885 10.5637 36.8827 11.2579C37.5769 11.9521 38.5182 12.3426 39.5 12.3438V12.3438ZM39.5 7.40625C39.7441 7.40625 39.9828 7.47865 40.1858 7.61428C40.3888 7.74992 40.547 7.9427 40.6404 8.16825C40.7339 8.3938 40.7583 8.642 40.7107 8.88144C40.663 9.12089 40.5455 9.34083 40.3728 9.51346C40.2002 9.68609 39.9803 9.80365 39.7408 9.85128C39.5014 9.89891 39.2532 9.87447 39.0276 9.78104C38.8021 9.68761 38.6093 9.5294 38.4737 9.32641C38.338 9.12342 38.2656 8.88476 38.2656 8.64063C38.266 8.31336 38.3962 7.99961 38.6276 7.7682C38.859 7.53679 39.1727 7.40662 39.5 7.40625V7.40625Z" fill="#006B5F"/>
<path d="M27.1562 12.3438C27.8887 12.3438 28.6046 12.1266 29.2136 11.7197C29.8226 11.3128 30.2972 10.7344 30.5775 10.0578C30.8578 9.38109 30.9311 8.63652 30.7882 7.91818C30.6453 7.19985 30.2926 6.54001 29.7747 6.02212C29.2569 5.50423 28.597 5.15154 27.8787 5.00866C27.1604 4.86577 26.4158 4.9391 25.7391 5.21939C25.0625 5.49967 24.4841 5.9743 24.0772 6.58328C23.6703 7.19226 23.4531 7.90822 23.4531 8.64063C23.4542 9.62242 23.8447 10.5637 24.539 11.2579C25.2332 11.9521 26.1745 12.3426 27.1562 12.3438V12.3438ZM27.1562 7.40625C27.4004 7.40625 27.639 7.47865 27.842 7.61428C28.045 7.74992 28.2032 7.9427 28.2967 8.16825C28.3901 8.3938 28.4145 8.642 28.3669 8.88144C28.3193 9.12089 28.2017 9.34083 28.0291 9.51346C27.8564 9.68609 27.6365 9.80365 27.3971 9.85128C27.1576 9.89891 26.9094 9.87447 26.6839 9.78104C26.4583 9.68761 26.2655 9.5294 26.1299 9.32641C25.9943 9.12342 25.9219 8.88476 25.9219 8.64063C25.9222 8.31336 26.0524 7.99961 26.2838 7.7682C26.5152 7.53679 26.829 7.40662 27.1562 7.40625V7.40625Z" fill="#006B5F"/>
<path d="M64.1875 23.4531H14.8125C14.4851 23.4531 14.1712 23.5832 13.9397 23.8147C13.7082 24.0462 13.5781 24.3601 13.5781 24.6875V59.25C13.5781 59.5774 13.7082 59.8913 13.9397 60.1228C14.1712 60.3543 14.4851 60.4844 14.8125 60.4844H64.1875C64.5149 60.4844 64.8288 60.3543 65.0603 60.1228C65.2918 59.8913 65.4219 59.5774 65.4219 59.25V24.6875C65.4219 24.3601 65.2918 24.0462 65.0603 23.8147C64.8288 23.5832 64.5149 23.4531 64.1875 23.4531ZM53.0781 56.7812V58.0156H40.7344V56.7812H53.0781ZM20.9844 54.3125V51.8438H58.0156V54.3125H20.9844ZM38.2656 56.7812V58.0156H25.9219V56.7812H38.2656ZM62.9531 58.0156H55.5469V56.7812H59.25C59.5774 56.7812 59.8913 56.6512 60.1228 56.4197C60.3543 56.1882 60.4844 55.8743 60.4844 55.5469V50.6094C60.4844 50.282 60.3543 49.968 60.1228 49.7365C59.8913 49.505 59.5774 49.375 59.25 49.375H19.75C19.4226 49.375 19.1087 49.505 18.8772 49.7365C18.6457 49.968 18.5156 50.282 18.5156 50.6094V55.5469C18.5156 55.8743 18.6457 56.1882 18.8772 56.4197C19.1087 56.6512 19.4226 56.7812 19.75 56.7812H23.4531V58.0156H16.0469V25.9219H62.9531V58.0156Z" fill="#006B5F"/>
</svg>
