<svg width="80" height="80" viewBox="0 0 80 80" fill="none" xmlns="http://www.w3.org/2000/svg">
<path d="M79.6685 24.3114C78.5736 21.1024 75.1202 19.4134 71.9196 20.5113L41.8502 30.7293C41.8502 28.7026 41.6818 25.9158 41.008 23.0447C40.5868 21.1868 39.8288 19.1601 38.7338 17.1334C37.1335 14.1778 33.8486 12.4888 30.4795 13.08C27.7842 13.5022 25.9312 15.9511 26.2681 18.6534L26.9419 24.818C27.2788 28.027 26.6892 31.3204 25.1731 34.1916L20.6248 42.8896C20.2037 43.7341 19.4457 44.4096 18.5191 44.663L15.5712 45.7608C14.9816 44.7474 13.7182 44.2407 12.4547 44.5785L1.75781 48.2097C0.410168 48.7164 -0.347882 50.152 0.157485 51.5031L7.90644 74.6415C8.32758 75.9926 9.84368 76.7527 11.1913 76.246L21.9725 72.6148C23.1517 72.1926 23.9097 71.0103 23.7413 69.7436L28.2053 68.2236L28.9634 68.8991C32.7536 71.9392 37.7231 72.9526 42.2714 71.4325C42.6083 71.3481 43.0294 71.1792 43.3663 71.0947C47.9989 69.4903 54.1475 67.0413 59.4539 63.8323C60.0435 63.8323 60.7173 63.7479 61.3069 63.579L67.4555 61.4678C70.6562 60.37 72.3407 56.9077 71.2457 53.6988C70.8246 52.4321 69.9823 51.4187 68.9716 50.6587C69.9823 49.1386 70.3192 47.1964 69.6454 45.3385C69.2243 44.0718 68.4662 43.1429 67.4555 42.3829C68.5505 40.8629 68.8874 38.8362 68.2135 36.9783C67.9609 36.2183 67.5397 35.5427 67.0344 34.9516L75.7098 31.996C79.0789 30.9826 80.7635 27.5203 79.6685 24.3114ZM15.0658 69.828C13.5497 70.3347 11.9494 69.5747 11.5282 68.0547C11.0229 66.6191 11.7809 64.9301 13.297 64.5079C14.8131 64.0012 16.4135 64.7613 16.8346 66.2813C17.34 67.7169 16.4977 69.3214 15.0658 69.828ZM53.3895 50.912C52.9683 49.7298 53.6421 48.4631 54.8213 48.0408L63.2441 45.1697C64.4233 44.7474 65.6867 45.423 66.1079 46.6052C66.529 47.7875 65.8552 49.0542 64.676 49.4764L56.2532 52.3476C55.1582 52.7698 53.8106 52.0943 53.3895 50.912ZM52.2945 44.8319C51.1153 45.2541 49.8519 44.5785 49.4307 43.3963C49.0096 42.214 49.6834 40.9473 50.8626 40.5251L61.8965 36.8094C63.0757 36.3872 64.3391 37.0628 64.7602 38.245C65.1813 39.4273 64.5075 40.694 63.3283 41.1162L52.2945 44.8319ZM67.7082 54.9655C68.1293 56.1477 67.4555 57.4144 66.2763 57.8366L60.1277 59.9478C58.9485 60.37 57.6851 59.6945 57.2639 58.5122C56.8428 57.33 57.5166 56.0633 58.6958 55.641L64.8444 53.5299C66.0236 53.1076 67.287 53.6988 67.7082 54.9655ZM74.6149 28.4492L49.5992 36.8939C47.5777 37.5695 46.2301 39.1739 45.6405 41.1162C43.619 49.2231 36.3754 49.8142 36.0385 49.8987C35.0278 49.9831 34.1855 50.912 34.2697 51.9254C34.354 52.9387 35.1962 53.7832 36.2912 53.6988C37.1335 53.6143 38.2284 53.4454 39.4076 53.0232C42.0187 52.1787 44.9667 50.3209 47.1566 46.943C47.8304 47.6186 48.6727 48.2097 49.5992 48.4631C49.2623 49.6453 49.2623 50.912 49.6834 52.0943C50.273 53.9521 51.7891 55.3032 53.4737 55.8944C53.1368 57.0766 53.0525 58.4278 53.4737 59.6945C53.8106 60.5389 54.2317 61.2989 54.9056 61.9745C50.1046 64.5924 44.8824 66.5346 41.008 67.8013C37.6389 68.8991 34.0171 68.2236 31.2375 65.9435L29.6372 64.5924C29.1318 64.1701 28.458 64.0857 27.7842 64.2546L22.3936 66.1124L16.8346 49.3075L19.7826 48.2942C21.6356 47.703 23.1517 46.3519 24.0782 44.663L28.6265 35.8805C30.4795 32.3338 31.2375 28.2803 30.8164 24.3114L30.1426 18.1468C30.0584 17.4712 30.4795 16.8801 31.1533 16.7956C32.8379 16.5423 34.5224 17.3867 35.3647 18.9068C36.2912 20.6801 36.965 22.3691 37.3019 23.8891C38.3127 28.4492 37.9758 33.1782 37.9758 33.2627C37.8915 33.9383 38.2284 34.5294 38.7338 34.8672C39.2392 35.2894 39.913 35.3739 40.5026 35.1205L73.183 23.9736C74.3622 23.5513 75.6256 24.2269 76.0467 25.4092C76.4679 26.7603 75.794 28.027 74.6149 28.4492Z" fill="#006B5F"/>
<path d="M54.4001 12.8266C54.7371 12.9111 55.074 12.8266 55.4109 12.7422C56.0005 12.4888 56.5058 11.9821 56.6743 11.3066L57.685 5.90199C57.8535 4.88863 57.1797 3.87527 56.1689 3.62193C55.1582 3.45304 54.1475 4.12861 53.8948 5.14197L52.7998 10.5466C52.7156 11.5599 53.3894 12.5733 54.4001 12.8266Z" fill="#006B5F"/>
<path d="M43.9558 13.84C44.4612 14.6 45.3877 14.8533 46.1457 14.6C46.3142 14.5155 46.4827 14.4311 46.5669 14.3466C47.4092 13.7555 47.6618 12.5733 47.0723 11.7288L44.04 7.16868C43.4505 6.32422 42.2713 6.07088 41.429 6.662C40.5867 7.25313 40.334 8.43538 40.9236 9.27985L43.9558 13.84Z" fill="#006B5F"/>
<path d="M63.2442 17.9778C63.4126 17.8934 63.5811 17.8089 63.6653 17.7245L68.2136 14.6844C69.0559 14.0933 69.3086 12.911 68.719 12.0666C68.1294 11.2221 66.9502 10.9688 66.1079 11.5599L61.5596 14.6C60.7173 15.1911 60.4646 16.3733 61.0542 17.2178C61.5596 17.9778 62.4019 18.2312 63.2442 17.9778Z" fill="#006B5F"/>
</svg>
