<svg width="79" height="79" viewBox="0 0 79 79" fill="none" xmlns="http://www.w3.org/2000/svg">
<g clip-path="url(#clip0_225_7323)">
<path d="M71.2842 14.767C70.8925 14.262 70.1656 14.1701 69.6606 14.5618C69.1556 14.9536 69.0638 15.6805 69.4554 16.1855C73.0108 20.7693 75.0566 26.3845 75.2938 32.1405L59.7546 27.9768C60.4034 23.8589 60.6591 19.6761 60.5125 15.5268C60.4278 13.125 60.2058 10.7106 59.8537 8.32239C62.037 9.40509 64.0811 10.7771 65.9104 12.3991C66.3887 12.8231 67.1199 12.7789 67.5439 12.3009C67.9679 11.8226 67.924 11.0912 67.4458 10.6674C64.4227 7.98726 60.8853 5.96737 57.07 4.67977L58.1882 1.54678C58.4031 0.944871 58.0891 0.282786 57.4874 0.0680052C56.8855 -0.146775 56.2234 0.166909 56.0086 0.768819L54.8443 4.03111C41.7448 0.7807 28.0171 6.73684 21.3839 18.5783C21.2946 18.7442 21.2109 18.956 21.2288 19.2399L21.639 25.2725C21.7173 26.4241 22.5191 27.3987 23.6342 27.6975L35.062 30.7595C36.1593 31.0539 37.3559 30.6214 38.0022 29.6569L39.4878 27.4454L39.6685 30.1035C39.7469 31.2551 40.5486 32.2297 41.6637 32.5285L46.2594 33.76L39.7879 57.9115L28.9631 57.8802H28.9597C28.3221 57.8802 27.8045 58.3962 27.8025 59.0342C27.8006 59.6733 28.3172 60.193 28.9565 60.1946L51.6193 60.2602H51.6306C52.7637 60.2602 53.8679 59.7966 54.6613 58.987L62.8175 50.6644C64.5006 48.9469 67.0618 48.3282 69.343 49.089L71.8235 49.9157L56.3573 65.4889C55.7103 66.1405 54.8125 66.5142 53.8941 66.5142H9.09806C8.98095 64.7555 9.46806 63.0437 10.7338 61.7824C11.784 60.7356 13.1775 60.1598 14.6592 60.1598H14.6783L23.555 60.1922H23.5593C24.1964 60.1922 24.7141 59.6768 24.7165 59.0391C24.7189 58.4 24.2026 57.8801 23.5635 57.8777L14.6864 57.8453C12.573 57.8373 10.5937 58.6542 9.09991 60.1431C7.21827 62.0187 6.78362 64.5913 6.78362 67.2085C6.78362 68.1019 7.51035 68.8286 8.40373 68.8286H11.1868L8.79286 74.0896C8.40573 74.9406 8.39262 75.8673 8.68254 76.6857H2.52612C1.88702 76.6857 1.3689 77.2037 1.3689 77.8429C1.3689 78.4822 1.88702 79.0001 2.52612 79.0001H73.7374C74.3765 79.0001 74.8946 78.4822 74.8946 77.8429C74.8946 77.2037 74.3765 76.6857 73.7374 76.6857H62.8734C63.1633 75.8673 63.1502 74.9404 62.7631 74.0895L59.0916 66.0203L74.2544 50.7522C75.0937 49.9201 74.7283 48.434 73.617 48.0737L70.0749 46.8931C66.9599 45.855 63.4625 46.6991 61.1644 49.0441L53.0082 57.3667C52.6476 57.7347 52.1456 57.9455 51.6307 57.9455H51.6257L42.182 57.9182L48.4947 34.3587L53.0912 35.5903C54.1884 35.885 55.3852 35.452 56.0316 34.4877L57.5172 32.2761L57.6978 34.9342C57.7762 36.0859 58.5779 37.0604 59.693 37.3593L71.1207 40.4213C72.218 40.7157 73.4148 40.2833 74.0611 39.3187L77.4325 34.2994C77.532 34.1385 77.6292 33.9331 77.6291 33.6494C77.7162 26.86 75.4637 20.1549 71.2842 14.767V14.767ZM11.9524 76.6857C11.7867 76.6857 11.6256 76.6505 11.4735 76.5814C10.8927 76.3171 10.6352 75.6292 10.8996 75.048L13.7297 68.8285H16.2741L13.0068 76.0074C12.8194 76.4195 12.4056 76.6857 11.9524 76.6857V76.6857ZM34.7581 76.6857H15.2409L18.8167 68.8286H36.8631L34.7581 76.6857ZM37.1542 76.6857L39.2591 68.8286H52.7395L56.3153 76.6857H37.1542ZM60.6565 75.048C60.9208 75.6294 60.6634 76.3172 60.0803 76.5823C59.9305 76.6508 59.7708 76.6857 59.6052 76.6857C59.1519 76.6857 58.7372 76.4189 58.5492 76.0074L55.2113 68.6729C55.9683 68.4942 56.6869 68.1653 57.3158 67.7059L60.6565 75.048ZM36.0808 28.3661C35.989 28.503 35.82 28.5662 35.6608 28.5236L24.233 25.4616C24.0737 25.419 23.9593 25.2797 23.948 25.1152L23.6477 20.698L38.5494 24.6909L36.0808 28.3661ZM39.6859 22.5993L24.1589 18.4388C29.7636 9.5651 39.8451 4.65847 50.0977 5.57299C48.2983 7.5361 46.6459 9.637 45.173 11.8448C42.9363 15.1969 41.094 18.8105 39.6859 22.5993V22.5993ZM54.1103 33.1971C54.0183 33.3341 53.8495 33.3974 53.6901 33.3547L42.2625 30.2926C42.1033 30.2501 41.9888 30.1107 41.9775 29.9462L41.6773 25.5291L56.5789 29.5219L54.1103 33.1971ZM57.5059 27.3741L41.932 23.2012C43.2677 19.6551 45.0016 16.2719 47.0983 13.1295C48.802 10.576 50.7568 8.17226 52.9092 5.97138C54.4129 6.26331 55.8992 6.68608 57.3349 7.22828C57.8088 9.99543 58.101 12.8109 58.1998 15.6086C58.338 19.5288 58.1039 23.4805 57.5059 27.3741V27.3741ZM72.1397 38.0281C72.0477 38.165 71.8789 38.2284 71.7195 38.1857L60.2919 35.1237C60.1326 35.0811 60.018 34.9417 60.0069 34.7773L59.7066 30.3602L74.6082 34.3531L72.1397 38.0281Z" fill="#006B5F"/>
</g>
<defs>
<clipPath id="clip0_225_7323">
<rect width="79" height="79" fill="white"/>
</clipPath>
</defs>
</svg>
